<svg xmlns="http://www.w3.org/2000/svg" xmlns:xlink="http://www.w3.org/1999/xlink" width="2000" zoomAndPan="magnify" viewBox="0 0 1500 1499.999933" height="2000" preserveAspectRatio="xMidYMid meet" version="1.0"><defs><g/><clipPath id="8af106d718"><rect x="0" width="1004" y="0" height="258"/></clipPath><clipPath id="529f20aa3d"><path d="M 117 604.097656 L 344 604.097656 L 344 814.847656 L 117 814.847656 Z M 117 604.097656 " clip-rule="nonzero"/></clipPath><clipPath id="a46d5a05ef"><path d="M 166 670 L 297 670 L 297 800.433594 L 166 800.433594 Z M 166 670 " clip-rule="nonzero"/></clipPath></defs><g transform="matrix(1, 0, 0, 1, 347, 580)"><g clip-path="url(#8af106d718)"><g fill="#f9f8f5" fill-opacity="1"><g transform="translate(0.513939, 201.595404)"><g><path d="M 0.796875 -13.859375 C 4.285156 -13.859375 7.203125 -14.863281 9.546875 -16.875 C 11.890625 -18.882812 13.726562 -21.328125 15.0625 -24.203125 C 16.40625 -27.078125 18.078125 -31.257812 20.078125 -36.75 L 59.25 -144.21875 L 73.3125 -144.21875 L 116.09375 -34.75 C 117.164062 -32.070312 118.300781 -28.753906 119.5 -24.796875 C 120.707031 -20.847656 121.445312 -17.535156 121.71875 -14.859375 C 126.132812 -15.265625 130.019531 -15.46875 133.375 -15.46875 L 133.375 0 L 79.34375 0 L 79.34375 -13.25 C 85.769531 -13.25 88.984375 -15.929688 88.984375 -21.296875 C 88.984375 -23.972656 88.242188 -27.1875 86.765625 -30.9375 L 82.75 -41.984375 L 39.171875 -41.171875 L 35.953125 -31.734375 C 35.546875 -30.660156 34.640625 -28.25 33.234375 -24.5 C 31.835938 -20.75 30.601562 -17.738281 29.53125 -15.46875 C 33.8125 -15.863281 38.5625 -16.0625 43.78125 -16.0625 L 43.78125 0 L 0.796875 0 Z M 77.734375 -56.234375 L 68.5 -81.34375 C 64.613281 -92.320312 62.066406 -101.492188 60.859375 -108.859375 L 60.65625 -108.859375 C 58.519531 -99.222656 56.046875 -90.390625 53.234375 -82.359375 L 44.1875 -56.234375 Z M 77.734375 -56.234375 "/></g></g></g><g fill="#f9f8f5" fill-opacity="1"><g transform="translate(134.68714, 201.595404)"><g><path d="M 52.625 -80.140625 C 49.28125 -84.429688 45.597656 -89.453125 41.578125 -95.203125 L 41.375 -95.203125 L 41.78125 -32.9375 C 41.78125 -25.4375 41.507812 -19.410156 40.96875 -14.859375 C 45.257812 -15.265625 50.285156 -15.46875 56.046875 -15.46875 L 56.046875 0 L 10.25 0 L 10.25 -13.25 C 13.863281 -13.382812 16.609375 -13.820312 18.484375 -14.5625 C 20.359375 -15.300781 21.828125 -16.875 22.890625 -19.28125 C 23.960938 -21.6875 24.5 -25.503906 24.5 -30.734375 L 24.109375 -107.65625 C 24.109375 -116.632812 24.375 -122.660156 24.90625 -125.734375 L 9.640625 -125.140625 L 9.640625 -140.59375 L 41.171875 -140.59375 L 102.640625 -63.0625 C 108.265625 -55.695312 112.953125 -49.335938 116.703125 -43.984375 L 116.90625 -43.984375 L 116.90625 -107.65625 C 116.90625 -116.363281 117.101562 -122.390625 117.5 -125.734375 L 102.4375 -125.140625 L 102.4375 -140.59375 L 148.234375 -140.59375 L 148.234375 -127.34375 C 144.617188 -127.207031 141.875 -126.769531 140 -126.03125 C 138.125 -125.300781 136.648438 -123.726562 135.578125 -121.3125 C 134.503906 -118.90625 133.96875 -115.09375 133.96875 -109.875 L 133.96875 2.015625 L 116.90625 2.015625 Z M 52.625 -80.140625 "/></g></g></g><g fill="#f9f8f5" fill-opacity="1"><g transform="translate(289.950433, 201.595404)"><g><path d="M 52.625 -80.140625 C 49.28125 -84.429688 45.597656 -89.453125 41.578125 -95.203125 L 41.375 -95.203125 L 41.78125 -32.9375 C 41.78125 -25.4375 41.507812 -19.410156 40.96875 -14.859375 C 45.257812 -15.265625 50.285156 -15.46875 56.046875 -15.46875 L 56.046875 0 L 10.25 0 L 10.25 -13.25 C 13.863281 -13.382812 16.609375 -13.820312 18.484375 -14.5625 C 20.359375 -15.300781 21.828125 -16.875 22.890625 -19.28125 C 23.960938 -21.6875 24.5 -25.503906 24.5 -30.734375 L 24.109375 -107.65625 C 24.109375 -116.632812 24.375 -122.660156 24.90625 -125.734375 L 9.640625 -125.140625 L 9.640625 -140.59375 L 41.171875 -140.59375 L 102.640625 -63.0625 C 108.265625 -55.695312 112.953125 -49.335938 116.703125 -43.984375 L 116.90625 -43.984375 L 116.90625 -107.65625 C 116.90625 -116.363281 117.101562 -122.390625 117.5 -125.734375 L 102.4375 -125.140625 L 102.4375 -140.59375 L 148.234375 -140.59375 L 148.234375 -127.34375 C 144.617188 -127.207031 141.875 -126.769531 140 -126.03125 C 138.125 -125.300781 136.648438 -123.726562 135.578125 -121.3125 C 134.503906 -118.90625 133.96875 -115.09375 133.96875 -109.875 L 133.96875 2.015625 L 116.90625 2.015625 Z M 52.625 -80.140625 "/></g></g></g><g fill="#f9f8f5" fill-opacity="1"><g transform="translate(441.999979, 201.595404)"><g><path d="M 0.796875 -13.859375 C 4.285156 -13.859375 7.203125 -14.863281 9.546875 -16.875 C 11.890625 -18.882812 13.726562 -21.328125 15.0625 -24.203125 C 16.40625 -27.078125 18.078125 -31.257812 20.078125 -36.75 L 59.25 -144.21875 L 73.3125 -144.21875 L 116.09375 -34.75 C 117.164062 -32.070312 118.300781 -28.753906 119.5 -24.796875 C 120.707031 -20.847656 121.445312 -17.535156 121.71875 -14.859375 C 126.132812 -15.265625 130.019531 -15.46875 133.375 -15.46875 L 133.375 0 L 79.34375 0 L 79.34375 -13.25 C 85.769531 -13.25 88.984375 -15.929688 88.984375 -21.296875 C 88.984375 -23.972656 88.242188 -27.1875 86.765625 -30.9375 L 82.75 -41.984375 L 39.171875 -41.171875 L 35.953125 -31.734375 C 35.546875 -30.660156 34.640625 -28.25 33.234375 -24.5 C 31.835938 -20.75 30.601562 -17.738281 29.53125 -15.46875 C 33.8125 -15.863281 38.5625 -16.0625 43.78125 -16.0625 L 43.78125 0 L 0.796875 0 Z M 77.734375 -56.234375 L 68.5 -81.34375 C 64.613281 -92.320312 62.066406 -101.492188 60.859375 -108.859375 L 60.65625 -108.859375 C 58.519531 -99.222656 56.046875 -90.390625 53.234375 -82.359375 L 44.1875 -56.234375 Z M 77.734375 -56.234375 "/></g></g></g><g fill="#f9f8f5" fill-opacity="1"><g transform="translate(576.173207, 201.595404)"><g><path d="M 10.046875 -13.25 C 13.660156 -13.382812 16.40625 -13.820312 18.28125 -14.5625 C 20.15625 -15.300781 21.625 -16.875 22.6875 -19.28125 C 23.757812 -21.6875 24.296875 -25.503906 24.296875 -30.734375 L 24.296875 -107.65625 C 24.296875 -115.15625 24.566406 -121.179688 25.109375 -125.734375 L 10.046875 -125.140625 L 10.046875 -140.59375 L 67.6875 -140.59375 L 67.6875 -127.34375 C 64.070312 -127.207031 61.328125 -126.769531 59.453125 -126.03125 C 57.578125 -125.300781 56.101562 -123.726562 55.03125 -121.3125 C 53.957031 -118.90625 53.421875 -115.09375 53.421875 -109.875 L 53.421875 -78.53125 L 108.671875 -78.53125 L 108.671875 -107.65625 C 108.671875 -116.632812 108.9375 -122.660156 109.46875 -125.734375 L 94.40625 -125.140625 L 94.40625 -140.59375 L 152.046875 -140.59375 L 152.046875 -127.34375 C 148.429688 -127.207031 145.6875 -126.769531 143.8125 -126.03125 C 141.9375 -125.300781 140.460938 -123.726562 139.390625 -121.3125 C 138.328125 -118.90625 137.796875 -115.09375 137.796875 -109.875 L 137.796875 -32.9375 C 137.796875 -25.4375 137.523438 -19.410156 136.984375 -14.859375 C 141.265625 -15.265625 146.285156 -15.46875 152.046875 -15.46875 L 152.046875 0 L 94.40625 0 L 94.40625 -13.25 C 98.019531 -13.382812 100.765625 -13.820312 102.640625 -14.5625 C 104.515625 -15.300781 105.988281 -16.875 107.0625 -19.28125 C 108.132812 -21.6875 108.671875 -25.503906 108.671875 -30.734375 L 108.671875 -63.265625 L 53.421875 -62.671875 L 53.421875 -32.9375 C 53.421875 -25.4375 53.15625 -19.410156 52.625 -14.859375 C 56.90625 -15.265625 61.925781 -15.46875 67.6875 -15.46875 L 67.6875 0 L 10.046875 0 Z M 10.046875 -13.25 "/></g></g></g><g fill="#f9f8f5" fill-opacity="1"><g transform="translate(738.26564, 201.595404)"><g/></g></g><g fill="#f9f8f5" fill-opacity="1"><g transform="translate(791.091309, 201.595404)"><g><path d="M 0.796875 -13.859375 C 4.285156 -13.859375 7.203125 -14.863281 9.546875 -16.875 C 11.890625 -18.882812 13.726562 -21.328125 15.0625 -24.203125 C 16.40625 -27.078125 18.078125 -31.257812 20.078125 -36.75 L 59.25 -144.21875 L 73.3125 -144.21875 L 116.09375 -34.75 C 117.164062 -32.070312 118.300781 -28.753906 119.5 -24.796875 C 120.707031 -20.847656 121.445312 -17.535156 121.71875 -14.859375 C 126.132812 -15.265625 130.019531 -15.46875 133.375 -15.46875 L 133.375 0 L 79.34375 0 L 79.34375 -13.25 C 85.769531 -13.25 88.984375 -15.929688 88.984375 -21.296875 C 88.984375 -23.972656 88.242188 -27.1875 86.765625 -30.9375 L 82.75 -41.984375 L 39.171875 -41.171875 L 35.953125 -31.734375 C 35.546875 -30.660156 34.640625 -28.25 33.234375 -24.5 C 31.835938 -20.75 30.601562 -17.738281 29.53125 -15.46875 C 33.8125 -15.863281 38.5625 -16.0625 43.78125 -16.0625 L 43.78125 0 L 0.796875 0 Z M 77.734375 -56.234375 L 68.5 -81.34375 C 64.613281 -92.320312 62.066406 -101.492188 60.859375 -108.859375 L 60.65625 -108.859375 C 58.519531 -99.222656 56.046875 -90.390625 53.234375 -82.359375 L 44.1875 -56.234375 Z M 77.734375 -56.234375 "/></g></g></g><g fill="#f9f8f5" fill-opacity="1"><g transform="translate(925.264537, 201.595404)"><g><path d="M 10.046875 -13.25 C 13.660156 -13.382812 16.40625 -13.820312 18.28125 -14.5625 C 20.15625 -15.300781 21.625 -16.875 22.6875 -19.28125 C 23.757812 -21.6875 24.296875 -25.503906 24.296875 -30.734375 L 24.296875 -107.65625 C 24.296875 -115.15625 24.566406 -121.179688 25.109375 -125.734375 L 10.046875 -125.140625 L 10.046875 -140.59375 L 67.6875 -140.59375 L 67.6875 -127.34375 C 64.070312 -127.207031 61.328125 -126.769531 59.453125 -126.03125 C 57.578125 -125.300781 56.101562 -123.726562 55.03125 -121.3125 C 53.957031 -118.90625 53.421875 -115.09375 53.421875 -109.875 L 53.421875 -32.9375 C 53.421875 -25.4375 53.15625 -19.410156 52.625 -14.859375 C 56.90625 -15.265625 61.925781 -15.46875 67.6875 -15.46875 L 67.6875 0 L 10.046875 0 Z M 10.046875 -13.25 "/></g></g></g></g></g><g clip-path="url(#529f20aa3d)"><path fill="#f9f8f5" d="M 318.546875 709.5 C 318.546875 713.644531 318.546875 717.835938 318.546875 721.984375 C 318.546875 750.8125 318.546875 779.691406 318.546875 808.523438 C 318.546875 811.875 315.707031 814.71875 312.351562 814.71875 C 305.644531 814.71875 298.9375 814.71875 292.230469 814.71875 C 244.535156 814.71875 196.792969 814.71875 149.101562 814.71875 C 145.746094 814.71875 142.90625 811.875 142.90625 808.523438 C 142.90625 804.378906 142.90625 800.1875 142.90625 796.039062 C 142.90625 767.210938 142.90625 738.332031 142.90625 709.5 C 142.90625 701.488281 155.292969 701.535156 155.292969 709.5 C 155.292969 713.644531 155.292969 717.835938 155.292969 721.984375 C 155.292969 748.765625 155.292969 775.546875 155.292969 802.328125 C 159.953125 802.328125 164.5625 802.328125 169.222656 802.328125 C 214.867188 802.328125 260.511719 802.328125 306.15625 802.328125 C 306.15625 800.230469 306.15625 798.136719 306.15625 796.039062 C 306.15625 767.210938 306.15625 738.332031 306.15625 709.5 C 306.15625 701.535156 318.546875 701.535156 318.546875 709.5 Z M 341.554688 702.839844 C 310.394531 674.660156 279.28125 646.527344 248.167969 618.394531 C 243.746094 614.390625 239.367188 610.429688 234.941406 606.425781 C 232.378906 604.097656 228.746094 604.097656 226.183594 606.425781 C 194.929688 634.605469 163.679688 662.738281 132.425781 690.871094 C 128 694.875 123.574219 698.835938 119.152344 702.839844 C 113.1875 708.195312 121.992188 716.953125 127.90625 711.597656 C 159.160156 683.464844 190.367188 655.332031 221.621094 627.199219 C 224.601562 624.542969 227.535156 621.890625 230.515625 619.1875 C 260.1875 646.015625 289.855469 672.84375 319.523438 699.625 C 323.949219 703.632812 328.328125 707.589844 332.753906 711.597656 C 338.667969 716.90625 347.472656 708.195312 341.554688 702.839844 Z M 293.953125 639.914062 C 293.953125 637.445312 293.953125 635.023438 293.953125 632.554688 C 298.984375 632.554688 304.015625 632.554688 309.046875 632.554688 C 309.046875 643.640625 309.046875 654.726562 309.046875 665.8125 C 309.046875 673.777344 321.433594 673.824219 321.433594 665.8125 C 321.433594 652.675781 321.433594 639.542969 321.433594 626.359375 C 321.433594 623.007812 318.59375 620.164062 315.238281 620.164062 C 306.0625 620.164062 296.933594 620.164062 287.757812 620.164062 C 284.40625 620.164062 281.566406 623.007812 281.566406 626.359375 C 281.566406 630.878906 281.566406 635.394531 281.566406 639.914062 C 281.519531 647.925781 293.953125 647.925781 293.953125 639.914062 Z M 293.953125 639.914062 " fill-opacity="1" fill-rule="nonzero"/></g><g clip-path="url(#a46d5a05ef)"><path fill="#f9f8f5" d="M 178.527344 774.164062 C 177.878906 773.507812 177.253906 772.828125 176.648438 772.132812 C 176.046875 771.433594 175.464844 770.71875 174.910156 769.984375 C 174.351562 769.25 173.820312 768.496094 173.3125 767.730469 C 172.800781 766.960938 172.320312 766.175781 171.859375 765.375 C 171.402344 764.574219 170.972656 763.761719 170.566406 762.933594 C 170.160156 762.105469 169.78125 761.265625 169.429688 760.410156 C 169.078125 759.558594 168.757812 758.695312 168.460938 757.824219 C 168.164062 756.949219 167.898438 756.066406 167.660156 755.175781 C 167.421875 754.285156 167.210938 753.390625 167.03125 752.484375 C 166.851562 751.582031 166.699219 750.671875 166.578125 749.757812 C 166.457031 748.84375 166.363281 747.925781 166.300781 747.007812 C 166.238281 746.085938 166.207031 745.167969 166.203125 744.242188 C 166.199219 743.320312 166.226562 742.402344 166.28125 741.480469 C 166.335938 740.558594 166.421875 739.644531 166.539062 738.726562 C 166.652344 737.8125 166.800781 736.902344 166.972656 735.996094 C 167.148438 735.09375 167.351562 734.195312 167.582031 733.300781 C 167.816406 732.410156 168.074219 731.523438 168.363281 730.648438 C 168.652344 729.773438 168.972656 728.910156 169.316406 728.054688 C 169.660156 727.199219 170.035156 726.355469 170.433594 725.523438 C 170.832031 724.695312 171.257812 723.875 171.710938 723.074219 C 172.164062 722.269531 172.640625 721.480469 173.144531 720.710938 C 173.648438 719.9375 174.175781 719.179688 174.726562 718.441406 C 175.277344 717.703125 175.851562 716.984375 176.453125 716.28125 C 177.050781 715.582031 177.671875 714.898438 178.3125 714.238281 C 178.953125 713.578125 179.617188 712.9375 180.300781 712.316406 C 180.984375 711.699219 181.6875 711.101562 182.410156 710.53125 C 183.132812 709.957031 183.871094 709.40625 184.628906 708.882812 C 185.386719 708.355469 186.160156 707.855469 186.949219 707.378906 C 187.742188 706.90625 188.546875 706.457031 189.363281 706.03125 C 190.183594 705.609375 191.015625 705.210938 191.859375 704.839844 C 192.703125 704.472656 193.558594 704.128906 194.425781 703.8125 C 195.292969 703.5 196.167969 703.214844 197.054688 702.953125 C 196.78125 703.886719 196.53125 704.824219 196.308594 705.769531 C 196.085938 706.714844 195.886719 707.664062 195.714844 708.621094 C 195.542969 709.574219 195.394531 710.535156 195.273438 711.496094 C 195.152344 712.460938 195.058594 713.425781 194.988281 714.394531 C 194.917969 715.363281 194.871094 716.332031 194.855469 717.304688 C 194.835938 718.273438 194.84375 719.242188 194.878906 720.214844 C 194.910156 721.183594 194.96875 722.152344 195.054688 723.121094 C 195.140625 724.085938 195.25 725.050781 195.386719 726.011719 C 195.523438 726.972656 195.683594 727.929688 195.871094 728.882812 C 196.058594 729.835938 196.273438 730.78125 196.511719 731.722656 C 196.75 732.664062 197.011719 733.597656 197.300781 734.527344 C 197.585938 735.453125 197.898438 736.371094 198.234375 737.28125 C 198.574219 738.195312 198.933594 739.09375 199.316406 739.984375 C 199.703125 740.878906 200.109375 741.757812 200.542969 742.628906 C 200.972656 743.496094 201.429688 744.355469 201.90625 745.199219 C 202.382812 746.046875 202.882812 746.878906 203.402344 747.695312 C 203.925781 748.515625 204.46875 749.320312 205.035156 750.109375 C 205.597656 750.898438 206.183594 751.671875 206.789062 752.429688 C 207.394531 753.191406 208.019531 753.933594 208.664062 754.65625 C 209.3125 755.382812 209.976562 756.089844 210.65625 756.78125 C 211.339844 757.46875 212.042969 758.140625 212.761719 758.792969 C 213.480469 759.445312 214.214844 760.078125 214.96875 760.691406 C 215.71875 761.304688 216.488281 761.898438 217.273438 762.46875 C 218.058594 763.042969 218.855469 763.59375 219.667969 764.125 C 220.484375 764.652344 221.308594 765.160156 222.152344 765.648438 C 222.992188 766.132812 223.84375 766.59375 224.710938 767.035156 C 225.574219 767.476562 226.453125 767.894531 227.339844 768.285156 C 228.226562 768.679688 229.125 769.050781 230.03125 769.394531 C 230.9375 769.742188 231.855469 770.0625 232.777344 770.359375 C 233.703125 770.65625 234.632812 770.929688 235.574219 771.175781 C 236.511719 771.421875 237.457031 771.644531 238.40625 771.839844 C 239.359375 772.039062 240.3125 772.210938 241.273438 772.355469 C 239.890625 773.933594 238.398438 775.402344 236.800781 776.761719 C 235.203125 778.121094 233.511719 779.355469 231.730469 780.464844 C 229.953125 781.574219 228.101562 782.550781 226.175781 783.386719 C 224.253906 784.226562 222.28125 784.921875 220.253906 785.46875 C 218.230469 786.015625 216.175781 786.414062 214.089844 786.660156 C 212.007812 786.90625 209.917969 787 207.820312 786.9375 C 205.722656 786.878906 203.640625 786.664062 201.574219 786.296875 C 199.507812 785.929688 197.480469 785.414062 195.492188 784.75 L 175.457031 799.984375 C 175.214844 800.132812 174.972656 800.132812 174.726562 799.984375 C 174.484375 799.832031 174.375 799.617188 174.402344 799.332031 Z M 296.929688 718.304688 C 296.929688 721.386719 296.636719 724.441406 296.042969 727.464844 C 295.449219 730.492188 294.566406 733.429688 293.398438 736.28125 C 292.226562 739.132812 290.792969 741.84375 289.09375 744.417969 C 287.394531 746.988281 285.460938 749.371094 283.296875 751.5625 L 287.859375 779.402344 C 287.886719 779.71875 287.765625 779.957031 287.496094 780.125 C 287.226562 780.289062 286.957031 780.292969 286.691406 780.125 L 264.527344 763.273438 C 263.742188 763.539062 262.949219 763.777344 262.152344 764 C 261.351562 764.222656 260.546875 764.421875 259.738281 764.597656 C 258.929688 764.777344 258.117188 764.933594 257.296875 765.070312 C 256.480469 765.207031 255.660156 765.320312 254.835938 765.414062 C 254.011719 765.507812 253.1875 765.578125 252.359375 765.628906 C 251.53125 765.679688 250.703125 765.707031 249.875 765.710938 C 249.046875 765.71875 248.214844 765.703125 247.386719 765.667969 C 246.558594 765.628906 245.734375 765.570312 244.910156 765.488281 C 244.082031 765.410156 243.261719 765.308594 242.441406 765.183594 C 241.621094 765.058594 240.804688 764.914062 239.992188 764.746094 C 239.183594 764.582031 238.375 764.394531 237.574219 764.183594 C 236.769531 763.976562 235.972656 763.746094 235.183594 763.496094 C 234.394531 763.246094 233.609375 762.972656 232.835938 762.683594 C 232.058594 762.390625 231.292969 762.078125 230.53125 761.746094 C 229.773438 761.414062 229.023438 761.0625 228.28125 760.691406 C 227.539062 760.320312 226.808594 759.929688 226.089844 759.519531 C 225.367188 759.109375 224.65625 758.679688 223.960938 758.234375 C 223.261719 757.789062 222.574219 757.324219 221.902344 756.839844 C 221.226562 756.355469 220.566406 755.855469 219.917969 755.339844 C 219.273438 754.820312 218.636719 754.289062 218.019531 753.738281 C 217.398438 753.1875 216.792969 752.621094 216.203125 752.039062 C 215.613281 751.453125 215.039062 750.855469 214.484375 750.246094 C 213.925781 749.632812 213.382812 749.003906 212.855469 748.363281 C 212.332031 747.722656 211.824219 747.070312 211.332031 746.402344 C 210.839844 745.734375 210.367188 745.054688 209.910156 744.359375 C 209.457031 743.667969 209.019531 742.964844 208.597656 742.25 C 208.179688 741.53125 207.78125 740.808594 207.402344 740.070312 C 207.019531 739.335938 206.660156 738.589844 206.316406 737.832031 C 205.976562 737.078125 205.65625 736.3125 205.351562 735.542969 C 205.050781 734.769531 204.769531 733.988281 204.511719 733.203125 C 204.25 732.414062 204.011719 731.621094 203.792969 730.824219 C 203.574219 730.023438 203.375 729.21875 203.199219 728.410156 C 203.019531 727.597656 202.867188 726.785156 202.730469 725.964844 C 202.597656 725.148438 202.484375 724.328125 202.394531 723.503906 C 202.304688 722.679688 202.234375 721.855469 202.1875 721.027344 C 202.140625 720.199219 202.113281 719.371094 202.109375 718.542969 C 202.105469 717.710938 202.121094 716.882812 202.164062 716.054688 C 202.203125 715.226562 202.261719 714.402344 202.34375 713.578125 C 202.429688 712.753906 202.53125 711.929688 202.65625 711.109375 C 202.785156 710.292969 202.929688 709.476562 203.097656 708.664062 C 203.269531 707.851562 203.457031 707.046875 203.667969 706.242188 C 203.878906 705.441406 204.109375 704.648438 204.363281 703.855469 C 204.617188 703.066406 204.890625 702.285156 205.183594 701.511719 C 205.476562 700.734375 205.789062 699.96875 206.125 699.210938 C 206.457031 698.449219 206.8125 697.699219 207.183594 696.960938 C 207.558594 696.21875 207.949219 695.492188 208.363281 694.769531 C 208.773438 694.050781 209.203125 693.34375 209.652344 692.644531 C 210.101562 691.949219 210.566406 691.265625 211.050781 690.589844 C 211.535156 689.917969 212.039062 689.257812 212.558594 688.613281 C 213.078125 687.96875 213.613281 687.335938 214.164062 686.714844 C 214.71875 686.097656 215.285156 685.496094 215.871094 684.90625 C 216.453125 684.320312 217.050781 683.746094 217.667969 683.1875 C 218.28125 682.632812 218.910156 682.089844 219.550781 681.566406 C 220.191406 681.042969 220.847656 680.535156 221.519531 680.046875 C 222.1875 679.558594 222.867188 679.085938 223.5625 678.632812 C 224.253906 678.179688 224.960938 677.742188 225.675781 677.324219 C 226.394531 676.910156 227.121094 676.511719 227.859375 676.132812 C 228.59375 675.753906 229.34375 675.394531 230.097656 675.054688 C 230.855469 674.714844 231.621094 674.394531 232.390625 674.097656 C 233.164062 673.796875 233.945312 673.519531 234.734375 673.257812 C 235.519531 673 236.316406 672.761719 237.113281 672.546875 C 237.914062 672.328125 238.71875 672.132812 239.53125 671.960938 C 240.339844 671.785156 241.15625 671.632812 241.972656 671.5 C 242.792969 671.367188 243.613281 671.257812 244.4375 671.167969 C 245.261719 671.078125 246.085938 671.011719 246.914062 670.964844 C 247.742188 670.921875 248.570312 670.898438 249.398438 670.894531 C 250.230469 670.894531 251.058594 670.914062 251.886719 670.953125 C 252.714844 670.996094 253.539062 671.058594 254.363281 671.144531 C 255.1875 671.226562 256.011719 671.335938 256.828125 671.460938 C 257.648438 671.589844 258.464844 671.738281 259.273438 671.910156 C 260.085938 672.082031 260.890625 672.273438 261.695312 672.484375 C 262.496094 672.699219 263.289062 672.929688 264.078125 673.1875 C 264.867188 673.441406 265.648438 673.714844 266.421875 674.011719 C 267.199219 674.308594 267.964844 674.621094 268.722656 674.957031 C 269.480469 675.292969 270.230469 675.648438 270.96875 676.023438 C 271.707031 676.398438 272.4375 676.792969 273.15625 677.207031 C 273.875 677.621094 274.582031 678.050781 275.277344 678.503906 C 275.972656 678.953125 276.65625 679.421875 277.328125 679.90625 C 278 680.394531 278.65625 680.898438 279.300781 681.417969 C 279.945312 681.9375 280.578125 682.476562 281.195312 683.03125 C 281.8125 683.585938 282.414062 684.152344 283 684.738281 C 283.585938 685.324219 284.15625 685.925781 284.714844 686.539062 C 285.269531 687.15625 285.808594 687.785156 286.332031 688.429688 C 286.851562 689.074219 287.359375 689.730469 287.84375 690.398438 C 288.332031 691.070312 288.804688 691.753906 289.253906 692.449219 C 289.707031 693.140625 290.140625 693.847656 290.554688 694.566406 C 290.972656 695.285156 291.367188 696.011719 291.746094 696.75 C 292.121094 697.488281 292.476562 698.234375 292.816406 698.992188 C 293.152344 699.75 293.472656 700.515625 293.769531 701.289062 C 294.066406 702.0625 294.34375 702.84375 294.601562 703.632812 C 294.855469 704.421875 295.09375 705.214844 295.308594 706.015625 C 295.523438 706.816406 295.714844 707.621094 295.886719 708.433594 C 296.0625 709.242188 296.210938 710.058594 296.34375 710.875 C 296.472656 711.695312 296.582031 712.515625 296.667969 713.339844 C 296.753906 714.167969 296.820312 714.992188 296.863281 715.820312 C 296.90625 716.648438 296.929688 717.476562 296.929688 718.304688 Z M 263.316406 718.304688 C 263.316406 718.6875 263.355469 719.066406 263.429688 719.4375 C 263.503906 719.8125 263.613281 720.175781 263.757812 720.527344 C 263.90625 720.882812 264.082031 721.214844 264.296875 721.53125 C 264.507812 721.851562 264.75 722.144531 265.019531 722.414062 C 265.289062 722.683594 265.582031 722.925781 265.898438 723.136719 C 266.214844 723.347656 266.550781 723.527344 266.902344 723.671875 C 267.253906 723.820312 267.617188 723.929688 267.992188 724.003906 C 268.367188 724.078125 268.746094 724.117188 269.125 724.117188 C 269.507812 724.117188 269.886719 724.078125 270.261719 724.003906 C 270.632812 723.929688 270.996094 723.820312 271.351562 723.671875 C 271.703125 723.527344 272.039062 723.347656 272.355469 723.136719 C 272.671875 722.925781 272.964844 722.683594 273.234375 722.414062 C 273.503906 722.144531 273.746094 721.851562 273.957031 721.53125 C 274.167969 721.214844 274.347656 720.882812 274.496094 720.527344 C 274.640625 720.175781 274.75 719.8125 274.824219 719.4375 C 274.898438 719.066406 274.9375 718.6875 274.9375 718.304688 C 274.9375 717.921875 274.898438 717.546875 274.824219 717.171875 C 274.75 716.796875 274.640625 716.433594 274.496094 716.082031 C 274.347656 715.730469 274.167969 715.394531 273.957031 715.078125 C 273.746094 714.761719 273.503906 714.464844 273.234375 714.195312 C 272.964844 713.925781 272.671875 713.6875 272.355469 713.472656 C 272.039062 713.261719 271.703125 713.082031 271.351562 712.9375 C 270.996094 712.792969 270.632812 712.679688 270.261719 712.605469 C 269.886719 712.53125 269.507812 712.496094 269.125 712.496094 C 268.746094 712.496094 268.367188 712.53125 267.992188 712.605469 C 267.617188 712.679688 267.253906 712.792969 266.902344 712.9375 C 266.550781 713.082031 266.214844 713.261719 265.898438 713.472656 C 265.582031 713.6875 265.289062 713.925781 265.019531 714.195312 C 264.75 714.464844 264.507812 714.761719 264.296875 715.078125 C 264.082031 715.394531 263.90625 715.730469 263.757812 716.082031 C 263.613281 716.433594 263.503906 716.796875 263.429688 717.171875 C 263.355469 717.546875 263.316406 717.921875 263.316406 718.304688 Z M 235.71875 718.304688 C 235.71875 717.921875 235.679688 717.546875 235.605469 717.171875 C 235.53125 716.796875 235.421875 716.433594 235.277344 716.082031 C 235.128906 715.730469 234.953125 715.394531 234.738281 715.078125 C 234.527344 714.761719 234.285156 714.464844 234.015625 714.195312 C 233.746094 713.925781 233.453125 713.6875 233.136719 713.472656 C 232.820312 713.261719 232.484375 713.082031 232.132812 712.9375 C 231.78125 712.792969 231.417969 712.679688 231.042969 712.605469 C 230.667969 712.53125 230.289062 712.496094 229.910156 712.496094 C 229.527344 712.496094 229.148438 712.53125 228.773438 712.605469 C 228.402344 712.679688 228.039062 712.792969 227.683594 712.9375 C 227.332031 713.082031 227 713.261719 226.679688 713.472656 C 226.363281 713.6875 226.070312 713.925781 225.800781 714.195312 C 225.53125 714.464844 225.289062 714.761719 225.078125 715.078125 C 224.867188 715.394531 224.6875 715.730469 224.539062 716.082031 C 224.394531 716.433594 224.285156 716.796875 224.210938 717.171875 C 224.136719 717.546875 224.097656 717.921875 224.097656 718.304688 C 224.097656 718.6875 224.136719 719.066406 224.210938 719.4375 C 224.285156 719.8125 224.394531 720.175781 224.539062 720.527344 C 224.6875 720.882812 224.867188 721.214844 225.078125 721.53125 C 225.289062 721.851562 225.53125 722.144531 225.800781 722.414062 C 226.070312 722.683594 226.363281 722.925781 226.679688 723.136719 C 227 723.347656 227.332031 723.527344 227.683594 723.671875 C 228.039062 723.820312 228.402344 723.929688 228.773438 724.003906 C 229.148438 724.078125 229.527344 724.117188 229.910156 724.117188 C 230.289062 724.117188 230.667969 724.078125 231.042969 724.003906 C 231.417969 723.929688 231.78125 723.820312 232.132812 723.671875 C 232.484375 723.527344 232.820312 723.347656 233.136719 723.136719 C 233.453125 722.925781 233.746094 722.683594 234.015625 722.414062 C 234.285156 722.144531 234.527344 721.851562 234.738281 721.53125 C 234.953125 721.214844 235.128906 720.882812 235.277344 720.527344 C 235.421875 720.175781 235.53125 719.8125 235.605469 719.4375 C 235.679688 719.066406 235.71875 718.6875 235.71875 718.304688 Z M 255.328125 718.304688 C 255.328125 717.921875 255.289062 717.546875 255.214844 717.171875 C 255.140625 716.796875 255.03125 716.433594 254.886719 716.082031 C 254.738281 715.730469 254.558594 715.394531 254.347656 715.078125 C 254.136719 714.761719 253.894531 714.464844 253.625 714.195312 C 253.355469 713.925781 253.0625 713.6875 252.746094 713.472656 C 252.429688 713.261719 252.09375 713.082031 251.742188 712.9375 C 251.386719 712.792969 251.023438 712.679688 250.652344 712.605469 C 250.277344 712.53125 249.898438 712.496094 249.519531 712.496094 C 249.136719 712.496094 248.757812 712.53125 248.382812 712.605469 C 248.011719 712.679688 247.648438 712.792969 247.292969 712.9375 C 246.941406 713.082031 246.605469 713.261719 246.289062 713.472656 C 245.972656 713.6875 245.679688 713.925781 245.410156 714.195312 C 245.140625 714.464844 244.898438 714.761719 244.6875 715.078125 C 244.476562 715.394531 244.296875 715.730469 244.148438 716.082031 C 244.003906 716.433594 243.894531 716.796875 243.820312 717.171875 C 243.746094 717.546875 243.707031 717.921875 243.707031 718.304688 C 243.707031 718.6875 243.746094 719.066406 243.820312 719.4375 C 243.894531 719.8125 244.003906 720.175781 244.148438 720.527344 C 244.296875 720.882812 244.476562 721.214844 244.6875 721.53125 C 244.898438 721.851562 245.140625 722.144531 245.410156 722.414062 C 245.679688 722.683594 245.972656 722.925781 246.289062 723.136719 C 246.605469 723.347656 246.941406 723.527344 247.292969 723.671875 C 247.648438 723.820312 248.011719 723.929688 248.382812 724.003906 C 248.757812 724.078125 249.136719 724.117188 249.519531 724.117188 C 249.898438 724.117188 250.277344 724.078125 250.652344 724.003906 C 251.023438 723.929688 251.386719 723.820312 251.742188 723.671875 C 252.09375 723.527344 252.429688 723.347656 252.746094 723.136719 C 253.0625 722.925781 253.355469 722.683594 253.625 722.414062 C 253.894531 722.144531 254.136719 721.851562 254.347656 721.53125 C 254.558594 721.214844 254.738281 720.882812 254.886719 720.527344 C 255.03125 720.175781 255.140625 719.8125 255.214844 719.4375 C 255.289062 719.066406 255.328125 718.6875 255.328125 718.304688 Z M 255.328125 718.304688 " fill-opacity="1" fill-rule="nonzero"/></g></svg>