<svg xmlns="http://www.w3.org/2000/svg" xmlns:xlink="http://www.w3.org/1999/xlink" width="2000" zoomAndPan="magnify" viewBox="0 0 1500 1499.999933" height="2000" preserveAspectRatio="xMidYMid meet" version="1.0"><defs><g/><clipPath id="0607cd41cb"><path d="M 231 0.558594 L 1234.238281 0.558594 L 1234.238281 257.359375 L 231 257.359375 Z M 231 0.558594 " clip-rule="nonzero"/></clipPath><clipPath id="3267fe5c92"><rect x="0" width="1004" y="0" height="258"/></clipPath><clipPath id="d97a43ad47"><path d="M 1 24.097656 L 228 24.097656 L 228 234.828125 L 1 234.828125 Z M 1 24.097656 " clip-rule="nonzero"/></clipPath><clipPath id="2a1627e836"><path d="M 50 90 L 180.945312 90 L 180.945312 220.148438 L 50 220.148438 Z M 50 90 " clip-rule="nonzero"/></clipPath><clipPath id="f056d86124"><rect x="0" width="1235" y="0" height="258"/></clipPath></defs><g transform="matrix(1, 0, 0, 1, 116, 580)"><g clip-path="url(#f056d86124)"><g clip-path="url(#0607cd41cb)"><g transform="matrix(1, 0, 0, 1, 231, 0.000000000000113687)"><g clip-path="url(#3267fe5c92)"><g fill="#3a5a40" fill-opacity="1"><g transform="translate(0.513968, 201.595258)"><g><path d="M 0.796875 -13.859375 C 4.285156 -13.859375 7.203125 -14.863281 9.546875 -16.875 C 11.890625 -18.882812 13.726562 -21.328125 15.0625 -24.203125 C 16.40625 -27.078125 18.078125 -31.257812 20.078125 -36.75 L 59.25 -144.21875 L 73.3125 -144.21875 L 116.09375 -34.75 C 117.164062 -32.070312 118.300781 -28.753906 119.5 -24.796875 C 120.707031 -20.847656 121.445312 -17.535156 121.71875 -14.859375 C 126.132812 -15.265625 130.019531 -15.46875 133.375 -15.46875 L 133.375 0 L 79.34375 0 L 79.34375 -13.25 C 85.769531 -13.25 88.984375 -15.929688 88.984375 -21.296875 C 88.984375 -23.972656 88.242188 -27.1875 86.765625 -30.9375 L 82.75 -41.984375 L 39.171875 -41.171875 L 35.953125 -31.734375 C 35.546875 -30.660156 34.640625 -28.25 33.234375 -24.5 C 31.835938 -20.75 30.601562 -17.738281 29.53125 -15.46875 C 33.8125 -15.863281 38.5625 -16.0625 43.78125 -16.0625 L 43.78125 0 L 0.796875 0 Z M 77.734375 -56.234375 L 68.5 -81.34375 C 64.613281 -92.320312 62.066406 -101.492188 60.859375 -108.859375 L 60.65625 -108.859375 C 58.519531 -99.222656 56.046875 -90.390625 53.234375 -82.359375 L 44.1875 -56.234375 Z M 77.734375 -56.234375 "/></g></g></g><g fill="#3a5a40" fill-opacity="1"><g transform="translate(134.687151, 201.595258)"><g><path d="M 52.625 -80.140625 C 49.28125 -84.429688 45.597656 -89.453125 41.578125 -95.203125 L 41.375 -95.203125 L 41.78125 -32.9375 C 41.78125 -25.4375 41.507812 -19.410156 40.96875 -14.859375 C 45.257812 -15.265625 50.285156 -15.46875 56.046875 -15.46875 L 56.046875 0 L 10.25 0 L 10.25 -13.25 C 13.863281 -13.382812 16.609375 -13.820312 18.484375 -14.5625 C 20.359375 -15.300781 21.828125 -16.875 22.890625 -19.28125 C 23.960938 -21.6875 24.5 -25.503906 24.5 -30.734375 L 24.109375 -107.65625 C 24.109375 -116.632812 24.375 -122.660156 24.90625 -125.734375 L 9.640625 -125.140625 L 9.640625 -140.59375 L 41.171875 -140.59375 L 102.640625 -63.0625 C 108.265625 -55.695312 112.953125 -49.335938 116.703125 -43.984375 L 116.90625 -43.984375 L 116.90625 -107.65625 C 116.90625 -116.363281 117.101562 -122.390625 117.5 -125.734375 L 102.4375 -125.140625 L 102.4375 -140.59375 L 148.234375 -140.59375 L 148.234375 -127.34375 C 144.617188 -127.207031 141.875 -126.769531 140 -126.03125 C 138.125 -125.300781 136.648438 -123.726562 135.578125 -121.3125 C 134.503906 -118.90625 133.96875 -115.09375 133.96875 -109.875 L 133.96875 2.015625 L 116.90625 2.015625 Z M 52.625 -80.140625 "/></g></g></g><g fill="#3a5a40" fill-opacity="1"><g transform="translate(289.950424, 201.595258)"><g><path d="M 52.625 -80.140625 C 49.28125 -84.429688 45.597656 -89.453125 41.578125 -95.203125 L 41.375 -95.203125 L 41.78125 -32.9375 C 41.78125 -25.4375 41.507812 -19.410156 40.96875 -14.859375 C 45.257812 -15.265625 50.285156 -15.46875 56.046875 -15.46875 L 56.046875 0 L 10.25 0 L 10.25 -13.25 C 13.863281 -13.382812 16.609375 -13.820312 18.484375 -14.5625 C 20.359375 -15.300781 21.828125 -16.875 22.890625 -19.28125 C 23.960938 -21.6875 24.5 -25.503906 24.5 -30.734375 L 24.109375 -107.65625 C 24.109375 -116.632812 24.375 -122.660156 24.90625 -125.734375 L 9.640625 -125.140625 L 9.640625 -140.59375 L 41.171875 -140.59375 L 102.640625 -63.0625 C 108.265625 -55.695312 112.953125 -49.335938 116.703125 -43.984375 L 116.90625 -43.984375 L 116.90625 -107.65625 C 116.90625 -116.363281 117.101562 -122.390625 117.5 -125.734375 L 102.4375 -125.140625 L 102.4375 -140.59375 L 148.234375 -140.59375 L 148.234375 -127.34375 C 144.617188 -127.207031 141.875 -126.769531 140 -126.03125 C 138.125 -125.300781 136.648438 -123.726562 135.578125 -121.3125 C 134.503906 -118.90625 133.96875 -115.09375 133.96875 -109.875 L 133.96875 2.015625 L 116.90625 2.015625 Z M 52.625 -80.140625 "/></g></g></g><g fill="#3a5a40" fill-opacity="1"><g transform="translate(441.999949, 201.595258)"><g><path d="M 0.796875 -13.859375 C 4.285156 -13.859375 7.203125 -14.863281 9.546875 -16.875 C 11.890625 -18.882812 13.726562 -21.328125 15.0625 -24.203125 C 16.40625 -27.078125 18.078125 -31.257812 20.078125 -36.75 L 59.25 -144.21875 L 73.3125 -144.21875 L 116.09375 -34.75 C 117.164062 -32.070312 118.300781 -28.753906 119.5 -24.796875 C 120.707031 -20.847656 121.445312 -17.535156 121.71875 -14.859375 C 126.132812 -15.265625 130.019531 -15.46875 133.375 -15.46875 L 133.375 0 L 79.34375 0 L 79.34375 -13.25 C 85.769531 -13.25 88.984375 -15.929688 88.984375 -21.296875 C 88.984375 -23.972656 88.242188 -27.1875 86.765625 -30.9375 L 82.75 -41.984375 L 39.171875 -41.171875 L 35.953125 -31.734375 C 35.546875 -30.660156 34.640625 -28.25 33.234375 -24.5 C 31.835938 -20.75 30.601562 -17.738281 29.53125 -15.46875 C 33.8125 -15.863281 38.5625 -16.0625 43.78125 -16.0625 L 43.78125 0 L 0.796875 0 Z M 77.734375 -56.234375 L 68.5 -81.34375 C 64.613281 -92.320312 62.066406 -101.492188 60.859375 -108.859375 L 60.65625 -108.859375 C 58.519531 -99.222656 56.046875 -90.390625 53.234375 -82.359375 L 44.1875 -56.234375 Z M 77.734375 -56.234375 "/></g></g></g><g fill="#3a5a40" fill-opacity="1"><g transform="translate(576.173159, 201.595258)"><g><path d="M 10.046875 -13.25 C 13.660156 -13.382812 16.40625 -13.820312 18.28125 -14.5625 C 20.15625 -15.300781 21.625 -16.875 22.6875 -19.28125 C 23.757812 -21.6875 24.296875 -25.503906 24.296875 -30.734375 L 24.296875 -107.65625 C 24.296875 -115.15625 24.566406 -121.179688 25.109375 -125.734375 L 10.046875 -125.140625 L 10.046875 -140.59375 L 67.6875 -140.59375 L 67.6875 -127.34375 C 64.070312 -127.207031 61.328125 -126.769531 59.453125 -126.03125 C 57.578125 -125.300781 56.101562 -123.726562 55.03125 -121.3125 C 53.957031 -118.90625 53.421875 -115.09375 53.421875 -109.875 L 53.421875 -78.53125 L 108.671875 -78.53125 L 108.671875 -107.65625 C 108.671875 -116.632812 108.9375 -122.660156 109.46875 -125.734375 L 94.40625 -125.140625 L 94.40625 -140.59375 L 152.046875 -140.59375 L 152.046875 -127.34375 C 148.429688 -127.207031 145.6875 -126.769531 143.8125 -126.03125 C 141.9375 -125.300781 140.460938 -123.726562 139.390625 -121.3125 C 138.328125 -118.90625 137.796875 -115.09375 137.796875 -109.875 L 137.796875 -32.9375 C 137.796875 -25.4375 137.523438 -19.410156 136.984375 -14.859375 C 141.265625 -15.265625 146.285156 -15.46875 152.046875 -15.46875 L 152.046875 0 L 94.40625 0 L 94.40625 -13.25 C 98.019531 -13.382812 100.765625 -13.820312 102.640625 -14.5625 C 104.515625 -15.300781 105.988281 -16.875 107.0625 -19.28125 C 108.132812 -21.6875 108.671875 -25.503906 108.671875 -30.734375 L 108.671875 -63.265625 L 53.421875 -62.671875 L 53.421875 -32.9375 C 53.421875 -25.4375 53.15625 -19.410156 52.625 -14.859375 C 56.90625 -15.265625 61.925781 -15.46875 67.6875 -15.46875 L 67.6875 0 L 10.046875 0 Z M 10.046875 -13.25 "/></g></g></g><g fill="#3a5a40" fill-opacity="1"><g transform="translate(738.265571, 201.595258)"><g/></g></g><g fill="#3a5a40" fill-opacity="1"><g transform="translate(791.091232, 201.595258)"><g><path d="M 0.796875 -13.859375 C 4.285156 -13.859375 7.203125 -14.863281 9.546875 -16.875 C 11.890625 -18.882812 13.726562 -21.328125 15.0625 -24.203125 C 16.40625 -27.078125 18.078125 -31.257812 20.078125 -36.75 L 59.25 -144.21875 L 73.3125 -144.21875 L 116.09375 -34.75 C 117.164062 -32.070312 118.300781 -28.753906 119.5 -24.796875 C 120.707031 -20.847656 121.445312 -17.535156 121.71875 -14.859375 C 126.132812 -15.265625 130.019531 -15.46875 133.375 -15.46875 L 133.375 0 L 79.34375 0 L 79.34375 -13.25 C 85.769531 -13.25 88.984375 -15.929688 88.984375 -21.296875 C 88.984375 -23.972656 88.242188 -27.1875 86.765625 -30.9375 L 82.75 -41.984375 L 39.171875 -41.171875 L 35.953125 -31.734375 C 35.546875 -30.660156 34.640625 -28.25 33.234375 -24.5 C 31.835938 -20.75 30.601562 -17.738281 29.53125 -15.46875 C 33.8125 -15.863281 38.5625 -16.0625 43.78125 -16.0625 L 43.78125 0 L 0.796875 0 Z M 77.734375 -56.234375 L 68.5 -81.34375 C 64.613281 -92.320312 62.066406 -101.492188 60.859375 -108.859375 L 60.65625 -108.859375 C 58.519531 -99.222656 56.046875 -90.390625 53.234375 -82.359375 L 44.1875 -56.234375 Z M 77.734375 -56.234375 "/></g></g></g><g fill="#3a5a40" fill-opacity="1"><g transform="translate(925.264442, 201.595258)"><g><path d="M 10.046875 -13.25 C 13.660156 -13.382812 16.40625 -13.820312 18.28125 -14.5625 C 20.15625 -15.300781 21.625 -16.875 22.6875 -19.28125 C 23.757812 -21.6875 24.296875 -25.503906 24.296875 -30.734375 L 24.296875 -107.65625 C 24.296875 -115.15625 24.566406 -121.179688 25.109375 -125.734375 L 10.046875 -125.140625 L 10.046875 -140.59375 L 67.6875 -140.59375 L 67.6875 -127.34375 C 64.070312 -127.207031 61.328125 -126.769531 59.453125 -126.03125 C 57.578125 -125.300781 56.101562 -123.726562 55.03125 -121.3125 C 53.957031 -118.90625 53.421875 -115.09375 53.421875 -109.875 L 53.421875 -32.9375 C 53.421875 -25.4375 53.15625 -19.410156 52.625 -14.859375 C 56.90625 -15.265625 61.925781 -15.46875 67.6875 -15.46875 L 67.6875 0 L 10.046875 0 Z M 10.046875 -13.25 "/></g></g></g></g></g></g><g clip-path="url(#d97a43ad47)"><path fill="#3a5a40" d="M 202.554688 129.503906 C 202.554688 133.648438 202.554688 137.839844 202.554688 141.988281 C 202.554688 170.820312 202.554688 199.699219 202.554688 228.53125 C 202.554688 231.882812 199.710938 234.726562 196.359375 234.726562 C 189.652344 234.726562 182.945312 234.726562 176.238281 234.726562 C 128.539062 234.726562 80.796875 234.726562 33.101562 234.726562 C 29.746094 234.726562 26.90625 231.882812 26.90625 228.53125 C 26.90625 224.382812 26.90625 220.191406 26.90625 216.046875 C 26.90625 187.214844 26.90625 158.335938 26.90625 129.503906 C 26.90625 121.492188 39.296875 121.539062 39.296875 129.503906 C 39.296875 133.648438 39.296875 137.839844 39.296875 141.988281 C 39.296875 168.769531 39.296875 195.550781 39.296875 222.335938 C 43.953125 222.335938 48.566406 222.335938 53.222656 222.335938 C 98.871094 222.335938 144.515625 222.335938 190.164062 222.335938 C 190.164062 220.238281 190.164062 218.144531 190.164062 216.046875 C 190.164062 187.214844 190.164062 158.335938 190.164062 129.503906 C 190.164062 121.539062 202.554688 121.539062 202.554688 129.503906 Z M 225.5625 122.84375 C 194.402344 94.664062 163.289062 66.53125 132.171875 38.394531 C 127.75 34.390625 123.371094 30.429688 118.945312 26.425781 C 116.382812 24.097656 112.75 24.097656 110.1875 26.425781 C 78.933594 54.605469 47.679688 82.738281 16.425781 110.871094 C 12 114.878906 7.574219 118.835938 3.152344 122.84375 C -2.8125 128.199219 5.992188 136.957031 11.90625 131.601562 C 43.160156 103.464844 74.371094 75.332031 105.625 47.199219 C 108.605469 44.542969 111.539062 41.890625 114.519531 39.1875 C 144.191406 66.015625 173.859375 92.847656 203.53125 119.628906 C 207.957031 123.636719 212.335938 127.59375 216.761719 131.601562 C 222.675781 136.910156 231.480469 128.199219 225.5625 122.84375 Z M 177.960938 59.914062 C 177.960938 57.445312 177.960938 55.023438 177.960938 52.554688 C 182.992188 52.554688 188.019531 52.554688 193.050781 52.554688 C 193.050781 63.640625 193.050781 74.726562 193.050781 85.8125 C 193.050781 93.777344 205.441406 93.824219 205.441406 85.8125 C 205.441406 72.679688 205.441406 59.542969 205.441406 46.359375 C 205.441406 43.007812 202.601562 40.167969 199.246094 40.167969 C 190.070312 40.167969 180.941406 40.167969 171.765625 40.167969 C 168.410156 40.167969 165.570312 43.007812 165.570312 46.359375 C 165.570312 50.878906 165.570312 55.398438 165.570312 59.914062 C 165.523438 67.925781 177.960938 67.925781 177.960938 59.914062 Z M 177.960938 59.914062 " fill-opacity="1" fill-rule="nonzero"/></g><g clip-path="url(#2a1627e836)"><path fill="#3a5a40" d="M 62.527344 194.167969 C 61.878906 193.511719 61.253906 192.832031 60.652344 192.136719 C 60.046875 191.4375 59.46875 190.722656 58.910156 189.988281 C 58.351562 189.253906 57.820312 188.5 57.3125 187.734375 C 56.800781 186.964844 56.320312 186.179688 55.863281 185.378906 C 55.402344 184.578125 54.972656 183.765625 54.566406 182.9375 C 54.160156 182.109375 53.78125 181.265625 53.429688 180.414062 C 53.082031 179.5625 52.757812 178.699219 52.460938 177.824219 C 52.167969 176.953125 51.898438 176.070312 51.660156 175.179688 C 51.421875 174.289062 51.210938 173.390625 51.03125 172.488281 C 50.851562 171.582031 50.699219 170.675781 50.578125 169.761719 C 50.457031 168.847656 50.363281 167.929688 50.300781 167.007812 C 50.238281 166.089844 50.207031 165.167969 50.203125 164.246094 C 50.199219 163.324219 50.226562 162.402344 50.28125 161.484375 C 50.335938 160.5625 50.421875 159.644531 50.539062 158.730469 C 50.652344 157.816406 50.800781 156.90625 50.972656 156 C 51.148438 155.09375 51.351562 154.195312 51.582031 153.304688 C 51.816406 152.410156 52.074219 151.527344 52.363281 150.652344 C 52.652344 149.777344 52.972656 148.910156 53.316406 148.054688 C 53.660156 147.199219 54.035156 146.359375 54.433594 145.527344 C 54.832031 144.695312 55.257812 143.878906 55.710938 143.074219 C 56.164062 142.273438 56.640625 141.484375 57.144531 140.710938 C 57.648438 139.9375 58.175781 139.183594 58.726562 138.445312 C 59.277344 137.707031 59.851562 136.984375 60.453125 136.285156 C 61.050781 135.582031 61.671875 134.902344 62.3125 134.238281 C 62.957031 133.578125 63.617188 132.9375 64.300781 132.320312 C 64.984375 131.699219 65.6875 131.105469 66.410156 130.53125 C 67.132812 129.957031 67.871094 129.410156 68.628906 128.882812 C 69.386719 128.359375 70.160156 127.855469 70.953125 127.382812 C 71.742188 126.90625 72.546875 126.457031 73.363281 126.03125 C 74.183594 125.609375 75.015625 125.210938 75.859375 124.84375 C 76.703125 124.472656 77.558594 124.128906 78.425781 123.816406 C 79.292969 123.5 80.167969 123.214844 81.054688 122.957031 C 80.78125 123.886719 80.535156 124.824219 80.308594 125.769531 C 80.085938 126.714844 79.890625 127.664062 79.714844 128.621094 C 79.542969 129.578125 79.398438 130.535156 79.273438 131.5 C 79.152344 132.460938 79.058594 133.429688 78.988281 134.394531 C 78.917969 135.363281 78.875 136.335938 78.855469 137.304688 C 78.835938 138.277344 78.84375 139.246094 78.878906 140.214844 C 78.910156 141.1875 78.972656 142.15625 79.054688 143.121094 C 79.140625 144.089844 79.25 145.054688 79.386719 146.015625 C 79.523438 146.976562 79.6875 147.933594 79.875 148.886719 C 80.0625 149.839844 80.273438 150.785156 80.511719 151.726562 C 80.75 152.667969 81.011719 153.601562 81.300781 154.527344 C 81.589844 155.457031 81.898438 156.375 82.238281 157.285156 C 82.574219 158.195312 82.933594 159.097656 83.320312 159.988281 C 83.703125 160.878906 84.113281 161.761719 84.542969 162.628906 C 84.976562 163.5 85.429688 164.355469 85.90625 165.203125 C 86.382812 166.046875 86.882812 166.878906 87.40625 167.699219 C 87.925781 168.519531 88.46875 169.320312 89.035156 170.113281 C 89.597656 170.902344 90.183594 171.675781 90.789062 172.433594 C 91.394531 173.191406 92.023438 173.933594 92.667969 174.660156 C 93.3125 175.386719 93.976562 176.09375 94.660156 176.785156 C 95.34375 177.472656 96.042969 178.144531 96.761719 178.796875 C 97.480469 179.449219 98.21875 180.082031 98.96875 180.695312 C 99.722656 181.308594 100.492188 181.902344 101.273438 182.472656 C 102.058594 183.046875 102.859375 183.597656 103.671875 184.128906 C 104.484375 184.65625 105.3125 185.164062 106.152344 185.652344 C 106.992188 186.136719 107.847656 186.597656 108.710938 187.039062 C 109.578125 187.480469 110.453125 187.898438 111.339844 188.289062 C 112.230469 188.683594 113.125 189.054688 114.035156 189.398438 C 114.941406 189.746094 115.855469 190.066406 116.78125 190.363281 C 117.703125 190.660156 118.636719 190.929688 119.574219 191.179688 C 120.515625 191.425781 121.457031 191.648438 122.410156 191.84375 C 123.359375 192.042969 124.316406 192.214844 125.273438 192.359375 C 123.890625 193.9375 122.402344 195.40625 120.804688 196.765625 C 119.203125 198.125 117.515625 199.359375 115.734375 200.46875 C 113.953125 201.578125 112.101562 202.554688 110.179688 203.394531 C 108.257812 204.230469 106.28125 204.925781 104.257812 205.472656 C 102.230469 206.019531 100.175781 206.417969 98.09375 206.664062 C 96.007812 206.910156 93.917969 207.003906 91.820312 206.945312 C 89.722656 206.882812 87.640625 206.667969 85.578125 206.300781 C 83.511719 205.9375 81.480469 205.421875 79.492188 204.753906 L 59.457031 219.988281 C 59.214844 220.140625 58.972656 220.140625 58.726562 219.988281 C 58.484375 219.839844 58.375 219.621094 58.402344 219.335938 Z M 180.933594 138.308594 C 180.9375 141.390625 180.640625 144.441406 180.046875 147.46875 C 179.453125 150.492188 178.570312 153.429688 177.402344 156.285156 C 176.234375 159.136719 174.796875 161.847656 173.097656 164.417969 C 171.398438 166.992188 169.464844 169.371094 167.300781 171.566406 L 171.863281 199.40625 C 171.890625 199.722656 171.769531 199.960938 171.5 200.128906 C 171.230469 200.292969 170.964844 200.296875 170.695312 200.128906 L 148.53125 183.277344 C 147.746094 183.539062 146.953125 183.78125 146.15625 184.003906 C 145.355469 184.222656 144.550781 184.425781 143.742188 184.601562 C 142.933594 184.78125 142.117188 184.9375 141.300781 185.074219 C 140.484375 185.210938 139.664062 185.324219 138.839844 185.417969 C 138.015625 185.511719 137.191406 185.582031 136.363281 185.632812 C 135.535156 185.683594 134.707031 185.710938 133.878906 185.714844 C 133.046875 185.722656 132.21875 185.707031 131.390625 185.667969 C 130.5625 185.632812 129.738281 185.574219 128.910156 185.492188 C 128.085938 185.414062 127.265625 185.308594 126.445312 185.1875 C 125.625 185.0625 124.808594 184.917969 123.996094 184.75 C 123.183594 184.585938 122.378906 184.398438 121.574219 184.1875 C 120.773438 183.980469 119.976562 183.75 119.1875 183.5 C 118.398438 183.25 117.613281 182.976562 116.835938 182.683594 C 116.0625 182.394531 115.292969 182.082031 114.535156 181.75 C 113.773438 181.417969 113.023438 181.066406 112.28125 180.695312 C 111.542969 180.324219 110.8125 179.933594 110.089844 179.523438 C 109.371094 179.113281 108.660156 178.683594 107.960938 178.238281 C 107.261719 177.792969 106.578125 177.328125 105.902344 176.84375 C 105.230469 176.359375 104.570312 175.859375 103.921875 175.34375 C 103.273438 174.824219 102.640625 174.289062 102.019531 173.738281 C 101.402344 173.1875 100.796875 172.621094 100.207031 172.039062 C 99.617188 171.457031 99.042969 170.859375 98.484375 170.246094 C 97.925781 169.636719 97.382812 169.007812 96.859375 168.367188 C 96.332031 167.726562 95.824219 167.070312 95.332031 166.402344 C 94.839844 165.734375 94.367188 165.054688 93.914062 164.363281 C 93.457031 163.671875 93.019531 162.964844 92.601562 162.25 C 92.183594 161.535156 91.78125 160.808594 91.402344 160.074219 C 91.023438 159.335938 90.660156 158.589844 90.320312 157.835938 C 89.976562 157.082031 89.65625 156.316406 89.355469 155.542969 C 89.054688 154.773438 88.773438 153.992188 88.511719 153.207031 C 88.25 152.417969 88.011719 151.625 87.792969 150.824219 C 87.574219 150.027344 87.375 149.222656 87.199219 148.410156 C 87.023438 147.601562 86.867188 146.785156 86.734375 145.96875 C 86.597656 145.152344 86.488281 144.328125 86.394531 143.503906 C 86.304688 142.683594 86.234375 141.855469 86.1875 141.027344 C 86.140625 140.199219 86.113281 139.371094 86.109375 138.542969 C 86.105469 137.714844 86.125 136.886719 86.164062 136.058594 C 86.203125 135.230469 86.265625 134.402344 86.347656 133.578125 C 86.429688 132.753906 86.535156 131.929688 86.660156 131.113281 C 86.785156 130.292969 86.933594 129.476562 87.101562 128.664062 C 87.269531 127.855469 87.460938 127.046875 87.671875 126.246094 C 87.878906 125.445312 88.113281 124.648438 88.367188 123.859375 C 88.617188 123.070312 88.890625 122.285156 89.183594 121.511719 C 89.476562 120.734375 89.792969 119.96875 90.125 119.210938 C 90.460938 118.453125 90.8125 117.703125 91.1875 116.960938 C 91.558594 116.222656 91.953125 115.492188 92.363281 114.773438 C 92.773438 114.050781 93.207031 113.34375 93.652344 112.648438 C 94.101562 111.949219 94.570312 111.265625 95.054688 110.59375 C 95.539062 109.917969 96.039062 109.261719 96.558594 108.613281 C 97.078125 107.96875 97.613281 107.335938 98.167969 106.71875 C 98.71875 106.097656 99.289062 105.496094 99.871094 104.90625 C 100.457031 104.320312 101.054688 103.746094 101.667969 103.191406 C 102.28125 102.632812 102.910156 102.09375 103.554688 101.566406 C 104.195312 101.042969 104.851562 100.539062 105.519531 100.046875 C 106.1875 99.558594 106.871094 99.085938 107.5625 98.632812 C 108.257812 98.179688 108.960938 97.742188 109.679688 97.328125 C 110.394531 96.910156 111.121094 96.511719 111.859375 96.132812 C 112.597656 95.753906 113.34375 95.394531 114.101562 95.054688 C 114.855469 94.714844 115.621094 94.394531 116.394531 94.097656 C 117.167969 93.796875 117.949219 93.519531 118.734375 93.257812 C 119.523438 93 120.316406 92.761719 121.117188 92.546875 C 121.917969 92.328125 122.722656 92.132812 123.53125 91.960938 C 124.34375 91.785156 125.15625 91.632812 125.976562 91.5 C 126.792969 91.367188 127.617188 91.257812 128.441406 91.167969 C 129.265625 91.078125 130.089844 91.011719 130.917969 90.964844 C 131.746094 90.921875 132.574219 90.898438 133.402344 90.894531 C 134.230469 90.894531 135.0625 90.914062 135.886719 90.953125 C 136.714844 90.996094 137.542969 91.058594 138.367188 91.144531 C 139.191406 91.226562 140.015625 91.335938 140.832031 91.460938 C 141.652344 91.589844 142.46875 91.738281 143.277344 91.910156 C 144.089844 92.082031 144.894531 92.273438 145.695312 92.484375 C 146.5 92.699219 147.292969 92.933594 148.082031 93.1875 C 148.871094 93.441406 149.652344 93.714844 150.425781 94.011719 C 151.203125 94.308594 151.96875 94.621094 152.726562 94.957031 C 153.484375 95.292969 154.234375 95.648438 154.972656 96.023438 C 155.710938 96.398438 156.441406 96.792969 157.160156 97.207031 C 157.878906 97.621094 158.585938 98.054688 159.28125 98.503906 C 159.976562 98.953125 160.660156 99.421875 161.332031 99.910156 C 162.003906 100.394531 162.660156 100.898438 163.304688 101.417969 C 163.949219 101.941406 164.582031 102.476562 165.199219 103.03125 C 165.816406 103.585938 166.417969 104.15625 167.003906 104.738281 C 167.589844 105.324219 168.164062 105.925781 168.71875 106.542969 C 169.273438 107.15625 169.8125 107.785156 170.335938 108.429688 C 170.855469 109.074219 171.363281 109.730469 171.851562 110.402344 C 172.339844 111.070312 172.808594 111.753906 173.261719 112.449219 C 173.710938 113.144531 174.144531 113.847656 174.5625 114.566406 C 174.976562 115.285156 175.371094 116.011719 175.75 116.75 C 176.125 117.488281 176.484375 118.238281 176.820312 118.992188 C 177.160156 119.75 177.476562 120.515625 177.773438 121.289062 C 178.070312 122.0625 178.347656 122.84375 178.605469 123.632812 C 178.863281 124.421875 179.097656 125.214844 179.3125 126.015625 C 179.527344 126.816406 179.722656 127.625 179.894531 128.433594 C 180.066406 129.246094 180.21875 130.058594 180.347656 130.878906 C 180.476562 131.699219 180.585938 132.519531 180.671875 133.34375 C 180.757812 134.167969 180.824219 134.992188 180.867188 135.820312 C 180.910156 136.648438 180.933594 137.476562 180.933594 138.308594 Z M 147.320312 138.308594 C 147.320312 138.6875 147.355469 139.066406 147.433594 139.441406 C 147.507812 139.816406 147.617188 140.179688 147.761719 140.53125 C 147.910156 140.882812 148.085938 141.21875 148.300781 141.535156 C 148.511719 141.851562 148.753906 142.144531 149.023438 142.414062 C 149.292969 142.683594 149.585938 142.925781 149.902344 143.136719 C 150.21875 143.351562 150.554688 143.527344 150.90625 143.675781 C 151.257812 143.820312 151.621094 143.929688 151.996094 144.003906 C 152.371094 144.082031 152.75 144.117188 153.128906 144.117188 C 153.511719 144.117188 153.890625 144.082031 154.265625 144.003906 C 154.636719 143.929688 155 143.820312 155.355469 143.675781 C 155.707031 143.527344 156.042969 143.351562 156.359375 143.136719 C 156.675781 142.925781 156.96875 142.683594 157.238281 142.414062 C 157.507812 142.144531 157.75 141.851562 157.960938 141.535156 C 158.171875 141.21875 158.351562 140.882812 158.5 140.53125 C 158.644531 140.179688 158.753906 139.816406 158.828125 139.441406 C 158.902344 139.066406 158.941406 138.6875 158.941406 138.308594 C 158.941406 137.925781 158.902344 137.546875 158.828125 137.171875 C 158.753906 136.800781 158.644531 136.4375 158.5 136.082031 C 158.351562 135.730469 158.171875 135.394531 157.960938 135.078125 C 157.75 134.761719 157.507812 134.46875 157.238281 134.199219 C 156.96875 133.929688 156.675781 133.6875 156.359375 133.476562 C 156.042969 133.265625 155.707031 133.085938 155.355469 132.9375 C 155 132.792969 154.636719 132.683594 154.265625 132.609375 C 153.890625 132.535156 153.511719 132.496094 153.128906 132.496094 C 152.75 132.496094 152.371094 132.535156 151.996094 132.609375 C 151.621094 132.683594 151.257812 132.792969 150.90625 132.9375 C 150.554688 133.085938 150.21875 133.265625 149.902344 133.476562 C 149.585938 133.6875 149.292969 133.929688 149.023438 134.199219 C 148.753906 134.46875 148.511719 134.761719 148.300781 135.078125 C 148.085938 135.394531 147.910156 135.730469 147.761719 136.082031 C 147.617188 136.4375 147.507812 136.800781 147.433594 137.171875 C 147.355469 137.546875 147.320312 137.925781 147.320312 138.308594 Z M 119.722656 138.308594 C 119.722656 137.925781 119.683594 137.546875 119.609375 137.171875 C 119.535156 136.800781 119.425781 136.4375 119.277344 136.082031 C 119.132812 135.730469 118.953125 135.394531 118.742188 135.078125 C 118.53125 134.761719 118.289062 134.46875 118.019531 134.199219 C 117.75 133.929688 117.457031 133.6875 117.140625 133.476562 C 116.820312 133.265625 116.488281 133.085938 116.132812 132.9375 C 115.78125 132.792969 115.417969 132.683594 115.042969 132.609375 C 114.671875 132.535156 114.292969 132.496094 113.910156 132.496094 C 113.53125 132.496094 113.152344 132.535156 112.777344 132.609375 C 112.402344 132.683594 112.039062 132.792969 111.6875 132.9375 C 111.335938 133.085938 111 133.265625 110.683594 133.476562 C 110.367188 133.6875 110.074219 133.929688 109.804688 134.199219 C 109.53125 134.46875 109.292969 134.761719 109.082031 135.078125 C 108.867188 135.394531 108.6875 135.730469 108.542969 136.082031 C 108.398438 136.4375 108.285156 136.800781 108.210938 137.171875 C 108.136719 137.546875 108.101562 137.925781 108.101562 138.308594 C 108.101562 138.6875 108.136719 139.066406 108.210938 139.441406 C 108.285156 139.816406 108.398438 140.179688 108.542969 140.53125 C 108.6875 140.882812 108.867188 141.21875 109.082031 141.535156 C 109.292969 141.851562 109.53125 142.144531 109.804688 142.414062 C 110.074219 142.683594 110.367188 142.925781 110.683594 143.136719 C 111 143.351562 111.335938 143.527344 111.6875 143.675781 C 112.039062 143.820312 112.402344 143.929688 112.777344 144.003906 C 113.152344 144.082031 113.53125 144.117188 113.910156 144.117188 C 114.292969 144.117188 114.671875 144.082031 115.042969 144.003906 C 115.417969 143.929688 115.78125 143.820312 116.132812 143.675781 C 116.488281 143.527344 116.820312 143.351562 117.140625 143.136719 C 117.457031 142.925781 117.75 142.683594 118.019531 142.414062 C 118.289062 142.144531 118.53125 141.851562 118.742188 141.535156 C 118.953125 141.21875 119.132812 140.882812 119.277344 140.53125 C 119.425781 140.179688 119.535156 139.816406 119.609375 139.441406 C 119.683594 139.066406 119.722656 138.6875 119.722656 138.308594 Z M 139.332031 138.308594 C 139.332031 137.925781 139.292969 137.546875 139.21875 137.171875 C 139.144531 136.800781 139.035156 136.4375 138.890625 136.082031 C 138.742188 135.730469 138.5625 135.394531 138.351562 135.078125 C 138.140625 134.761719 137.898438 134.46875 137.628906 134.199219 C 137.359375 133.929688 137.066406 133.6875 136.75 133.476562 C 136.429688 133.265625 136.097656 133.085938 135.746094 132.9375 C 135.390625 132.792969 135.027344 132.683594 134.65625 132.609375 C 134.28125 132.535156 133.902344 132.496094 133.519531 132.496094 C 133.140625 132.496094 132.761719 132.535156 132.386719 132.609375 C 132.011719 132.683594 131.648438 132.792969 131.296875 132.9375 C 130.945312 133.085938 130.609375 133.265625 130.292969 133.476562 C 129.976562 133.6875 129.683594 133.929688 129.414062 134.199219 C 129.144531 134.46875 128.902344 134.761719 128.691406 135.078125 C 128.476562 135.394531 128.300781 135.730469 128.152344 136.082031 C 128.007812 136.4375 127.898438 136.800781 127.820312 137.171875 C 127.746094 137.546875 127.710938 137.925781 127.710938 138.308594 C 127.710938 138.6875 127.746094 139.066406 127.820312 139.441406 C 127.898438 139.816406 128.007812 140.179688 128.152344 140.53125 C 128.300781 140.882812 128.476562 141.21875 128.691406 141.535156 C 128.902344 141.851562 129.144531 142.144531 129.414062 142.414062 C 129.683594 142.683594 129.976562 142.925781 130.292969 143.136719 C 130.609375 143.351562 130.945312 143.527344 131.296875 143.675781 C 131.648438 143.820312 132.011719 143.929688 132.386719 144.003906 C 132.761719 144.082031 133.140625 144.117188 133.519531 144.117188 C 133.902344 144.117188 134.28125 144.082031 134.65625 144.003906 C 135.027344 143.929688 135.390625 143.820312 135.746094 143.675781 C 136.097656 143.527344 136.429688 143.351562 136.75 143.136719 C 137.066406 142.925781 137.359375 142.683594 137.628906 142.414062 C 137.898438 142.144531 138.140625 141.851562 138.351562 141.535156 C 138.5625 141.21875 138.742188 140.882812 138.890625 140.53125 C 139.035156 140.179688 139.144531 139.816406 139.21875 139.441406 C 139.292969 139.066406 139.332031 138.6875 139.332031 138.308594 Z M 139.332031 138.308594 " fill-opacity="1" fill-rule="nonzero"/></g></g></g></svg>