<svg xmlns="http://www.w3.org/2000/svg" xmlns:xlink="http://www.w3.org/1999/xlink" width="2000" zoomAndPan="magnify" viewBox="0 0 1500 1499.999933" height="2000" preserveAspectRatio="xMidYMid meet" version="1.0"><defs><clipPath id="abe3467c6e"><path d="M 170 213 L 1330 213 L 1330 1289.25 L 170 1289.25 Z M 170 213 " clip-rule="nonzero"/></clipPath><clipPath id="11780018dd"><path d="M 421 552 L 1090.726562 552 L 1090.726562 1214.246094 L 421 1214.246094 Z M 421 552 " clip-rule="nonzero"/></clipPath></defs><g clip-path="url(#abe3467c6e)"><path fill="#f9f8f5" d="M 1201.71875 750.476562 C 1201.71875 771.703125 1201.71875 793.167969 1201.71875 814.394531 C 1201.71875 962.027344 1201.71875 1109.898438 1201.71875 1257.527344 C 1201.71875 1274.703125 1187.171875 1289.25 1170 1289.25 C 1135.65625 1289.25 1101.3125 1289.25 1066.96875 1289.25 C 822.742188 1289.25 578.28125 1289.25 334.054688 1289.25 C 316.882812 1289.25 302.335938 1274.703125 302.335938 1257.527344 C 302.335938 1236.300781 302.335938 1214.835938 302.335938 1193.609375 C 302.335938 1045.980469 302.335938 898.109375 302.335938 750.476562 C 302.335938 709.453125 365.777344 709.691406 365.777344 750.476562 C 365.777344 771.703125 365.777344 793.167969 365.777344 814.394531 C 365.777344 951.53125 365.777344 1088.671875 365.777344 1225.808594 C 389.625 1225.808594 413.238281 1225.808594 437.085938 1225.808594 C 670.816406 1225.808594 904.546875 1225.808594 1138.277344 1225.808594 C 1138.277344 1215.074219 1138.277344 1204.34375 1138.277344 1193.609375 C 1138.277344 1045.980469 1138.277344 898.109375 1138.277344 750.476562 C 1138.277344 709.691406 1201.71875 709.691406 1201.71875 750.476562 Z M 1319.539062 716.371094 C 1159.984375 572.078125 1000.664062 428.023438 841.34375 283.96875 C 818.6875 263.457031 796.269531 243.1875 773.613281 222.675781 C 760.492188 210.75 741.890625 210.75 728.773438 222.675781 C 568.738281 366.96875 408.707031 511.023438 248.671875 655.078125 C 226.015625 675.585938 203.355469 695.859375 180.699219 716.371094 C 150.171875 743.800781 195.246094 788.636719 225.535156 761.210938 C 385.570312 617.15625 545.367188 473.101562 705.398438 329.046875 C 720.664062 315.453125 735.691406 301.855469 750.953125 288.023438 C 902.878906 425.402344 1054.804688 562.777344 1206.730469 699.914062 C 1229.386719 720.425781 1251.804688 740.699219 1274.460938 761.210938 C 1304.753906 788.398438 1349.828125 743.800781 1319.539062 716.371094 Z M 1075.792969 394.15625 C 1075.792969 381.515625 1075.792969 369.113281 1075.792969 356.472656 C 1101.550781 356.472656 1127.308594 356.472656 1153.066406 356.472656 C 1153.066406 413.238281 1153.066406 470 1153.066406 526.761719 C 1153.066406 567.546875 1216.507812 567.785156 1216.507812 526.761719 C 1216.507812 459.507812 1216.507812 392.25 1216.507812 324.753906 C 1216.507812 307.582031 1201.957031 293.03125 1184.785156 293.03125 C 1137.800781 293.03125 1091.054688 293.03125 1044.070312 293.03125 C 1026.898438 293.03125 1012.351562 307.582031 1012.351562 324.753906 C 1012.351562 347.886719 1012.351562 371.023438 1012.351562 394.15625 C 1012.113281 435.179688 1075.792969 435.179688 1075.792969 394.15625 Z M 1075.792969 394.15625 " fill-opacity="1" fill-rule="nonzero"/></g><g clip-path="url(#11780018dd)"><path fill="#f9f8f5" d="M 484.726562 1081.578125 C 481.414062 1078.214844 478.214844 1074.75 475.125 1071.179688 C 472.035156 1067.609375 469.0625 1063.941406 466.210938 1060.179688 C 463.359375 1056.417969 460.628906 1052.570312 458.023438 1048.632812 C 455.421875 1044.695312 452.945312 1040.675781 450.601562 1036.578125 C 448.253906 1032.480469 446.046875 1028.3125 443.96875 1024.070312 C 441.894531 1019.832031 439.957031 1015.527344 438.160156 1011.164062 C 436.359375 1006.796875 434.703125 1002.378906 433.191406 997.90625 C 431.679688 993.433594 430.3125 988.917969 429.089844 984.355469 C 427.871094 979.796875 426.796875 975.199219 425.871094 970.570312 C 424.945312 965.941406 424.171875 961.285156 423.546875 956.605469 C 422.925781 951.925781 422.453125 947.230469 422.128906 942.523438 C 421.808594 937.8125 421.640625 933.09375 421.625 928.375 C 421.605469 923.652344 421.742188 918.9375 422.03125 914.222656 C 422.316406 909.511719 422.757812 904.8125 423.347656 900.128906 C 423.9375 895.445312 424.679688 890.785156 425.570312 886.148438 C 426.464844 881.511719 427.503906 876.910156 428.691406 872.339844 C 429.882812 867.773438 431.214844 863.246094 432.695312 858.761719 C 434.179688 854.28125 435.800781 849.847656 437.570312 845.472656 C 439.335938 841.09375 441.242188 836.777344 443.289062 832.519531 C 445.332031 828.265625 447.515625 824.082031 449.828125 819.96875 C 452.144531 815.851562 454.589844 811.816406 457.167969 807.859375 C 459.746094 803.90625 462.445312 800.035156 465.269531 796.253906 C 468.097656 792.472656 471.042969 788.785156 474.105469 785.191406 C 477.171875 781.601562 480.347656 778.113281 483.636719 774.722656 C 486.925781 771.335938 490.320312 768.058594 493.820312 764.890625 C 497.320312 761.726562 500.921875 758.671875 504.617188 755.738281 C 508.316406 752.800781 512.105469 749.988281 515.984375 747.296875 C 519.863281 744.605469 523.824219 742.042969 527.871094 739.609375 C 531.914062 737.175781 536.035156 734.871094 540.226562 732.703125 C 544.421875 730.535156 548.679688 728.5 553.003906 726.605469 C 557.328125 724.714844 561.710938 722.960938 566.148438 721.347656 C 570.585938 719.738281 575.070312 718.269531 579.601562 716.949219 C 578.203125 721.71875 576.933594 726.523438 575.789062 731.359375 C 574.648438 736.199219 573.632812 741.0625 572.75 745.957031 C 571.867188 750.847656 571.113281 755.757812 570.492188 760.691406 C 569.867188 765.625 569.378906 770.570312 569.019531 775.527344 C 568.660156 780.484375 568.4375 785.449219 568.34375 790.417969 C 568.25 795.390625 568.285156 800.359375 568.457031 805.328125 C 568.628906 810.296875 568.933594 815.253906 569.367188 820.207031 C 569.804688 825.160156 570.371094 830.097656 571.070312 835.019531 C 571.765625 839.941406 572.597656 844.839844 573.554688 849.71875 C 574.515625 854.59375 575.605469 859.445312 576.824219 864.261719 C 578.042969 869.082031 579.386719 873.867188 580.859375 878.613281 C 582.332031 883.363281 583.933594 888.066406 585.65625 892.730469 C 587.378906 897.394531 589.226562 902.007812 591.195312 906.570312 C 593.167969 911.136719 595.257812 915.644531 597.464844 920.097656 C 599.675781 924.550781 602.003906 928.941406 604.449219 933.269531 C 606.890625 937.597656 609.449219 941.859375 612.121094 946.050781 C 614.792969 950.242188 617.574219 954.363281 620.464844 958.40625 C 623.355469 962.449219 626.351562 966.414062 629.453125 970.300781 C 632.554688 974.183594 635.757812 977.984375 639.0625 981.695312 C 642.367188 985.410156 645.769531 989.035156 649.265625 992.566406 C 652.765625 996.097656 656.351562 999.535156 660.035156 1002.875 C 663.714844 1006.21875 667.480469 1009.457031 671.335938 1012.597656 C 675.1875 1015.738281 679.125 1018.773438 683.140625 1021.707031 C 687.15625 1024.636719 691.246094 1027.457031 695.410156 1030.171875 C 699.578125 1032.882812 703.8125 1035.484375 708.117188 1037.96875 C 712.421875 1040.457031 716.789062 1042.828125 721.21875 1045.082031 C 725.648438 1047.335938 730.136719 1049.472656 734.679688 1051.484375 C 739.226562 1053.5 743.820312 1055.394531 748.464844 1057.164062 C 753.113281 1058.933594 757.800781 1060.578125 762.535156 1062.097656 C 767.265625 1063.617188 772.035156 1065.011719 776.84375 1066.277344 C 781.652344 1067.542969 786.488281 1068.679688 791.355469 1069.6875 C 796.226562 1070.695312 801.117188 1071.574219 806.03125 1072.320312 C 802.496094 1076.355469 798.816406 1080.257812 794.992188 1084.019531 C 791.171875 1087.785156 787.21875 1091.40625 783.128906 1094.878906 C 779.042969 1098.355469 774.832031 1101.675781 770.5 1104.839844 C 766.171875 1108.003906 761.730469 1111.007812 757.179688 1113.847656 C 752.625 1116.6875 747.976562 1119.355469 743.230469 1121.855469 C 738.480469 1124.351562 733.648438 1126.675781 728.730469 1128.816406 C 723.816406 1130.960938 718.824219 1132.921875 713.761719 1134.699219 C 708.703125 1136.476562 703.582031 1138.066406 698.402344 1139.46875 C 693.226562 1140.871094 688.003906 1142.082031 682.734375 1143.101562 C 677.46875 1144.121094 672.171875 1144.945312 666.84375 1145.574219 C 661.515625 1146.203125 656.171875 1146.640625 650.8125 1146.875 C 645.453125 1147.113281 640.09375 1147.15625 634.730469 1147 C 629.367188 1146.84375 624.019531 1146.492188 618.683594 1145.945312 C 613.34375 1145.398438 608.035156 1144.65625 602.753906 1143.71875 C 597.472656 1142.78125 592.230469 1141.648438 587.03125 1140.328125 C 581.832031 1139.003906 576.6875 1137.496094 571.601562 1135.796875 L 469.015625 1213.800781 C 468.445312 1214.152344 467.820312 1214.328125 467.148438 1214.328125 C 466.476562 1214.328125 465.851562 1214.148438 465.28125 1213.796875 C 464.707031 1213.441406 464.273438 1212.964844 463.972656 1212.363281 C 463.671875 1211.761719 463.550781 1211.125 463.609375 1210.453125 Z M 1091.019531 795.550781 C 1091.03125 803.425781 1090.65625 811.28125 1089.898438 819.117188 C 1089.140625 826.953125 1088.003906 834.734375 1086.484375 842.460938 C 1084.96875 850.183594 1083.078125 857.820312 1080.816406 865.359375 C 1078.554688 872.902344 1075.929688 880.3125 1072.945312 887.597656 C 1069.957031 894.882812 1066.625 902.007812 1062.941406 908.964844 C 1059.261719 915.925781 1055.25 922.6875 1050.90625 929.257812 C 1046.566406 935.824219 1041.914062 942.164062 1036.953125 948.277344 C 1031.992188 954.394531 1026.746094 960.25 1021.214844 965.851562 L 1044.574219 1108.410156 C 1044.640625 1109.152344 1044.507812 1109.855469 1044.175781 1110.519531 C 1043.84375 1111.183594 1043.359375 1111.714844 1042.726562 1112.105469 C 1042.09375 1112.496094 1041.40625 1112.691406 1040.660156 1112.691406 C 1039.917969 1112.695312 1039.226562 1112.5 1038.59375 1112.109375 L 925.121094 1025.824219 C 921.09375 1027.167969 917.035156 1028.40625 912.941406 1029.539062 C 908.851562 1030.667969 904.734375 1031.691406 900.589844 1032.605469 C 896.441406 1033.523438 892.277344 1034.328125 888.089844 1035.023438 C 883.902344 1035.71875 879.699219 1036.308594 875.480469 1036.78125 C 871.265625 1037.257812 867.035156 1037.625 862.800781 1037.878906 C 858.5625 1038.132812 854.320312 1038.277344 850.078125 1038.308594 C 845.832031 1038.339844 841.589844 1038.261719 837.347656 1038.070312 C 833.109375 1037.878906 828.875 1037.578125 824.652344 1037.164062 C 820.425781 1036.75 816.214844 1036.226562 812.019531 1035.59375 C 807.820312 1034.960938 803.644531 1034.21875 799.484375 1033.367188 C 795.328125 1032.511719 791.191406 1031.550781 787.085938 1030.480469 C 782.976562 1029.414062 778.902344 1028.234375 774.855469 1026.953125 C 770.808594 1025.667969 766.796875 1024.28125 762.824219 1022.785156 C 758.851562 1021.292969 754.921875 1019.695312 751.03125 1017.996094 C 747.140625 1016.296875 743.300781 1014.496094 739.503906 1012.59375 C 735.707031 1010.691406 731.964844 1008.691406 728.277344 1006.59375 C 724.585938 1004.496094 720.953125 1002.304688 717.378906 1000.015625 C 713.804688 997.726562 710.289062 995.347656 706.839844 992.875 C 703.390625 990.402344 700.007812 987.839844 696.691406 985.191406 C 693.375 982.539062 690.128906 979.804688 686.957031 976.984375 C 683.785156 974.164062 680.691406 971.261719 677.667969 968.28125 C 674.648438 965.296875 671.710938 962.238281 668.847656 959.101562 C 665.988281 955.964844 663.214844 952.753906 660.523438 949.472656 C 657.832031 946.1875 655.226562 942.839844 652.710938 939.417969 C 650.195312 936 647.773438 932.515625 645.441406 928.972656 C 643.105469 925.425781 640.867188 921.820312 638.722656 918.15625 C 636.582031 914.492188 634.535156 910.773438 632.585938 907.003906 C 630.636719 903.234375 628.789062 899.414062 627.039062 895.546875 C 625.289062 891.675781 623.644531 887.765625 622.101562 883.8125 C 620.558594 879.859375 619.121094 875.867188 617.785156 871.835938 C 616.453125 867.804688 615.226562 863.746094 614.105469 859.648438 C 612.984375 855.554688 611.96875 851.433594 611.066406 847.289062 C 610.160156 843.140625 609.367188 838.972656 608.679688 834.785156 C 607.992188 830.59375 607.417969 826.390625 606.953125 822.171875 C 606.488281 817.953125 606.132812 813.722656 605.886719 809.484375 C 605.644531 805.246094 605.511719 801.007812 605.492188 796.761719 C 605.46875 792.515625 605.558594 788.273438 605.761719 784.035156 C 605.960938 779.792969 606.273438 775.5625 606.699219 771.339844 C 607.121094 767.117188 607.65625 762.90625 608.300781 758.710938 C 608.945312 754.515625 609.695312 750.339844 610.558594 746.183594 C 611.421875 742.027344 612.394531 737.894531 613.476562 733.789062 C 614.554688 729.6875 615.742188 725.613281 617.035156 721.570312 C 618.328125 717.527344 619.726562 713.519531 621.230469 709.550781 C 622.734375 705.582031 624.339844 701.652344 626.050781 697.769531 C 627.761719 693.882812 629.570312 690.042969 631.480469 686.253906 C 633.394531 682.464844 635.402344 678.726562 637.507812 675.042969 C 639.617188 671.355469 641.816406 667.730469 644.117188 664.160156 C 646.414062 660.589844 648.800781 657.085938 651.285156 653.640625 C 653.765625 650.195312 656.335938 646.820312 658.992188 643.511719 C 661.652344 640.199219 664.394531 636.964844 667.222656 633.796875 C 670.050781 630.632812 672.960938 627.542969 675.949219 624.53125 C 678.941406 621.519531 682.007812 618.585938 685.152344 615.734375 C 688.296875 612.882812 691.511719 610.113281 694.800781 607.429688 C 698.089844 604.75 701.449219 602.152344 704.875 599.644531 C 708.300781 597.140625 711.789062 594.722656 715.339844 592.398438 C 718.894531 590.074219 722.503906 587.847656 726.171875 585.710938 C 729.839844 583.578125 733.5625 581.539062 737.339844 579.601562 C 741.117188 577.660156 744.941406 575.824219 748.8125 574.082031 C 752.683594 572.34375 756.597656 570.707031 760.558594 569.175781 C 764.515625 567.640625 768.511719 566.214844 772.542969 564.890625 C 776.578125 563.566406 780.644531 562.347656 784.738281 561.238281 C 788.835938 560.128906 792.960938 559.125 797.109375 558.230469 C 801.257812 557.335938 805.429688 556.550781 809.621094 555.875 C 813.808594 555.199219 818.015625 554.636719 822.234375 554.179688 C 826.457031 553.726562 830.6875 553.382812 834.925781 553.148438 C 839.164062 552.914062 843.402344 552.792969 847.648438 552.78125 C 851.894531 552.773438 856.136719 552.871094 860.375 553.085938 C 864.613281 553.296875 868.84375 553.621094 873.066406 554.054688 C 877.289062 554.488281 881.5 555.03125 885.691406 555.6875 C 889.886719 556.339844 894.0625 557.105469 898.214844 557.976562 C 902.367188 558.851562 906.496094 559.832031 910.597656 560.921875 C 914.703125 562.011719 918.773438 563.210938 922.8125 564.515625 C 926.851562 565.816406 930.855469 567.226562 934.820312 568.738281 C 938.785156 570.253906 942.710938 571.871094 946.589844 573.589844 C 950.472656 575.308594 954.304688 577.128906 958.089844 579.050781 C 961.875 580.96875 965.609375 582.988281 969.289062 585.105469 C 972.96875 587.222656 976.589844 589.433594 980.152344 591.738281 C 983.714844 594.042969 987.214844 596.441406 990.652344 598.933594 C 994.09375 601.421875 997.460938 604 1000.765625 606.667969 C 1004.066406 609.335938 1007.296875 612.085938 1010.457031 614.921875 C 1013.613281 617.757812 1016.695312 620.675781 1019.703125 623.671875 C 1022.707031 626.671875 1025.632812 629.746094 1028.476562 632.894531 C 1031.320312 636.046875 1034.078125 639.269531 1036.753906 642.566406 C 1039.429688 645.863281 1042.015625 649.226562 1044.511719 652.660156 C 1047.011719 656.089844 1049.417969 659.585938 1051.734375 663.144531 C 1054.050781 666.699219 1056.269531 670.316406 1058.394531 673.992188 C 1060.519531 677.664062 1062.546875 681.394531 1064.476562 685.175781 C 1066.40625 688.953125 1068.238281 692.785156 1069.964844 696.660156 C 1071.695312 700.535156 1073.320312 704.457031 1074.84375 708.417969 C 1076.367188 712.378906 1077.789062 716.378906 1079.101562 720.417969 C 1080.414062 724.453125 1081.621094 728.519531 1082.722656 732.621094 C 1083.824219 736.71875 1084.816406 740.847656 1085.699219 744.996094 C 1086.582031 749.148438 1087.355469 753.320312 1088.023438 757.515625 C 1088.6875 761.707031 1089.242188 765.914062 1089.6875 770.136719 C 1090.128906 774.355469 1090.464844 778.585938 1090.6875 782.824219 C 1090.910156 787.066406 1091.019531 791.308594 1091.019531 795.550781 Z M 918.910156 795.550781 C 918.910156 796.527344 918.957031 797.5 919.054688 798.46875 C 919.148438 799.4375 919.292969 800.398438 919.480469 801.355469 C 919.671875 802.3125 919.90625 803.253906 920.191406 804.1875 C 920.472656 805.121094 920.800781 806.035156 921.175781 806.9375 C 921.546875 807.835938 921.964844 808.71875 922.421875 809.578125 C 922.882812 810.4375 923.382812 811.269531 923.925781 812.082031 C 924.464844 812.890625 925.046875 813.671875 925.664062 814.425781 C 926.28125 815.179688 926.933594 815.898438 927.625 816.589844 C 928.3125 817.277344 929.035156 817.929688 929.789062 818.550781 C 930.539062 819.167969 931.320312 819.746094 932.132812 820.289062 C 932.941406 820.832031 933.777344 821.332031 934.636719 821.789062 C 935.496094 822.25 936.375 822.664062 937.277344 823.039062 C 938.175781 823.410156 939.09375 823.738281 940.023438 824.023438 C 940.957031 824.304688 941.902344 824.542969 942.855469 824.730469 C 943.8125 824.921875 944.773438 825.0625 945.746094 825.160156 C 946.714844 825.253906 947.6875 825.304688 948.660156 825.304688 C 949.636719 825.304688 950.609375 825.253906 951.578125 825.160156 C 952.546875 825.0625 953.507812 824.921875 954.464844 824.730469 C 955.421875 824.542969 956.363281 824.304688 957.296875 824.023438 C 958.230469 823.738281 959.144531 823.410156 960.046875 823.039062 C 960.945312 822.664062 961.828125 822.25 962.683594 821.789062 C 963.542969 821.332031 964.378906 820.832031 965.191406 820.289062 C 966 819.746094 966.78125 819.167969 967.535156 818.550781 C 968.289062 817.929688 969.007812 817.277344 969.699219 816.589844 C 970.386719 815.898438 971.039062 815.179688 971.660156 814.425781 C 972.277344 813.671875 972.855469 812.890625 973.398438 812.082031 C 973.9375 811.269531 974.441406 810.4375 974.898438 809.578125 C 975.359375 808.71875 975.773438 807.835938 976.148438 806.9375 C 976.519531 806.035156 976.847656 805.121094 977.132812 804.1875 C 977.414062 803.253906 977.648438 802.3125 977.839844 801.355469 C 978.03125 800.398438 978.171875 799.4375 978.269531 798.46875 C 978.363281 797.5 978.410156 796.527344 978.410156 795.550781 C 978.410156 794.578125 978.363281 793.605469 978.269531 792.636719 C 978.171875 791.664062 978.03125 790.703125 977.839844 789.746094 C 977.648438 788.792969 977.414062 787.847656 977.132812 786.914062 C 976.847656 785.984375 976.519531 785.066406 976.148438 784.167969 C 975.773438 783.265625 975.359375 782.386719 974.898438 781.527344 C 974.441406 780.667969 973.9375 779.832031 973.398438 779.023438 C 972.855469 778.210938 972.277344 777.429688 971.660156 776.679688 C 971.039062 775.925781 970.386719 775.203125 969.699219 774.515625 C 969.007812 773.824219 968.289062 773.171875 967.535156 772.554688 C 966.78125 771.9375 966 771.355469 965.191406 770.816406 C 964.378906 770.273438 963.542969 769.773438 962.683594 769.3125 C 961.828125 768.855469 960.945312 768.4375 960.046875 768.066406 C 959.144531 767.691406 958.230469 767.363281 957.296875 767.082031 C 956.363281 766.800781 955.421875 766.5625 954.464844 766.371094 C 953.507812 766.183594 952.546875 766.039062 951.578125 765.945312 C 950.609375 765.847656 949.636719 765.800781 948.660156 765.800781 C 947.6875 765.800781 946.714844 765.847656 945.746094 765.945312 C 944.773438 766.039062 943.8125 766.183594 942.855469 766.371094 C 941.902344 766.5625 940.957031 766.800781 940.023438 767.082031 C 939.09375 767.363281 938.175781 767.691406 937.277344 768.066406 C 936.375 768.4375 935.496094 768.855469 934.636719 769.3125 C 933.777344 769.773438 932.941406 770.273438 932.132812 770.816406 C 931.320312 771.355469 930.539062 771.9375 929.789062 772.554688 C 929.035156 773.171875 928.3125 773.824219 927.625 774.515625 C 926.933594 775.203125 926.28125 775.925781 925.664062 776.679688 C 925.046875 777.429688 924.464844 778.210938 923.925781 779.023438 C 923.382812 779.832031 922.882812 780.667969 922.421875 781.527344 C 921.964844 782.386719 921.546875 783.265625 921.175781 784.167969 C 920.800781 785.066406 920.472656 785.984375 920.191406 786.914062 C 919.90625 787.847656 919.671875 788.792969 919.480469 789.746094 C 919.292969 790.703125 919.148438 791.664062 919.054688 792.636719 C 918.957031 793.605469 918.910156 794.578125 918.910156 795.550781 Z M 777.59375 795.550781 C 777.59375 794.578125 777.542969 793.605469 777.449219 792.636719 C 777.355469 791.664062 777.210938 790.703125 777.019531 789.746094 C 776.832031 788.792969 776.59375 787.847656 776.3125 786.914062 C 776.027344 785.984375 775.699219 785.066406 775.328125 784.167969 C 774.953125 783.265625 774.539062 782.386719 774.078125 781.527344 C 773.621094 780.667969 773.121094 779.832031 772.578125 779.023438 C 772.039062 778.210938 771.457031 777.429688 770.839844 776.679688 C 770.222656 775.925781 769.566406 775.203125 768.878906 774.515625 C 768.191406 773.824219 767.46875 773.171875 766.714844 772.554688 C 765.960938 771.9375 765.179688 771.355469 764.371094 770.816406 C 763.558594 770.273438 762.726562 769.773438 761.867188 769.3125 C 761.007812 768.855469 760.125 768.4375 759.226562 768.066406 C 758.328125 767.691406 757.410156 767.363281 756.476562 767.082031 C 755.546875 766.800781 754.601562 766.5625 753.644531 766.371094 C 752.691406 766.183594 751.726562 766.039062 750.757812 765.945312 C 749.789062 765.847656 748.816406 765.800781 747.839844 765.800781 C 746.867188 765.800781 745.894531 765.847656 744.925781 765.945312 C 743.957031 766.039062 742.992188 766.183594 742.039062 766.371094 C 741.082031 766.5625 740.136719 766.800781 739.207031 767.082031 C 738.273438 767.363281 737.355469 767.691406 736.457031 768.066406 C 735.554688 768.4375 734.675781 768.855469 733.816406 769.3125 C 732.957031 769.773438 732.121094 770.273438 731.3125 770.816406 C 730.503906 771.355469 729.722656 771.9375 728.96875 772.554688 C 728.214844 773.171875 727.492188 773.824219 726.804688 774.515625 C 726.117188 775.203125 725.460938 775.925781 724.84375 776.679688 C 724.226562 777.429688 723.644531 778.210938 723.105469 779.023438 C 722.5625 779.832031 722.0625 780.667969 721.601562 781.527344 C 721.144531 782.386719 720.726562 783.265625 720.355469 784.167969 C 719.980469 785.066406 719.652344 785.984375 719.371094 786.914062 C 719.089844 787.847656 718.851562 788.792969 718.660156 789.746094 C 718.472656 790.703125 718.328125 791.664062 718.234375 792.636719 C 718.136719 793.605469 718.089844 794.578125 718.089844 795.550781 C 718.089844 796.527344 718.136719 797.5 718.234375 798.46875 C 718.328125 799.4375 718.472656 800.398438 718.660156 801.355469 C 718.851562 802.3125 719.089844 803.253906 719.371094 804.1875 C 719.652344 805.121094 719.980469 806.035156 720.355469 806.9375 C 720.726562 807.835938 721.144531 808.71875 721.601562 809.578125 C 722.0625 810.4375 722.5625 811.269531 723.105469 812.082031 C 723.644531 812.890625 724.226562 813.671875 724.84375 814.425781 C 725.460938 815.179688 726.117188 815.898438 726.804688 816.589844 C 727.492188 817.277344 728.214844 817.929688 728.96875 818.550781 C 729.722656 819.167969 730.503906 819.746094 731.3125 820.289062 C 732.121094 820.832031 732.957031 821.332031 733.816406 821.789062 C 734.675781 822.25 735.554688 822.664062 736.457031 823.039062 C 737.355469 823.410156 738.273438 823.738281 739.207031 824.023438 C 740.136719 824.304688 741.082031 824.542969 742.039062 824.730469 C 742.992188 824.921875 743.957031 825.0625 744.925781 825.160156 C 745.894531 825.253906 746.867188 825.304688 747.839844 825.304688 C 748.816406 825.304688 749.789062 825.253906 750.757812 825.160156 C 751.726562 825.0625 752.691406 824.921875 753.644531 824.730469 C 754.601562 824.542969 755.546875 824.304688 756.476562 824.023438 C 757.410156 823.738281 758.328125 823.410156 759.226562 823.039062 C 760.125 822.664062 761.007812 822.25 761.867188 821.789062 C 762.726562 821.332031 763.558594 820.832031 764.371094 820.289062 C 765.179688 819.746094 765.960938 819.167969 766.714844 818.550781 C 767.46875 817.929688 768.191406 817.277344 768.878906 816.589844 C 769.566406 815.898438 770.222656 815.179688 770.839844 814.425781 C 771.457031 813.671875 772.039062 812.890625 772.578125 812.082031 C 773.121094 811.269531 773.621094 810.4375 774.078125 809.578125 C 774.539062 808.71875 774.953125 807.835938 775.328125 806.9375 C 775.699219 806.035156 776.027344 805.121094 776.3125 804.1875 C 776.59375 803.253906 776.832031 802.3125 777.019531 801.355469 C 777.210938 800.398438 777.355469 799.4375 777.449219 798.46875 C 777.542969 797.5 777.59375 796.527344 777.59375 795.550781 Z M 878.003906 795.550781 C 878.003906 794.578125 877.953125 793.605469 877.859375 792.636719 C 877.761719 791.664062 877.621094 790.703125 877.429688 789.746094 C 877.242188 788.792969 877.003906 787.847656 876.722656 786.914062 C 876.4375 785.984375 876.109375 785.066406 875.738281 784.167969 C 875.363281 783.265625 874.949219 782.386719 874.488281 781.527344 C 874.03125 780.667969 873.53125 779.832031 872.988281 779.023438 C 872.445312 778.210938 871.867188 777.429688 871.25 776.679688 C 870.632812 775.925781 869.976562 775.203125 869.289062 774.515625 C 868.597656 773.824219 867.878906 773.171875 867.125 772.554688 C 866.371094 771.9375 865.589844 771.355469 864.78125 770.816406 C 863.96875 770.273438 863.136719 769.773438 862.277344 769.3125 C 861.417969 768.855469 860.535156 768.4375 859.636719 768.066406 C 858.734375 767.691406 857.820312 767.363281 856.886719 767.082031 C 855.953125 766.800781 855.011719 766.5625 854.054688 766.371094 C 853.101562 766.183594 852.136719 766.039062 851.167969 765.945312 C 850.199219 765.847656 849.226562 765.800781 848.25 765.800781 C 847.277344 765.800781 846.304688 765.847656 845.335938 765.945312 C 844.367188 766.039062 843.402344 766.183594 842.445312 766.371094 C 841.492188 766.5625 840.546875 766.800781 839.613281 767.082031 C 838.683594 767.363281 837.765625 767.691406 836.867188 768.066406 C 835.964844 768.4375 835.085938 768.855469 834.226562 769.3125 C 833.367188 769.773438 832.53125 770.273438 831.722656 770.816406 C 830.914062 771.355469 830.128906 771.9375 829.378906 772.554688 C 828.625 773.171875 827.902344 773.824219 827.214844 774.515625 C 826.523438 775.203125 825.871094 775.925781 825.253906 776.679688 C 824.636719 777.429688 824.054688 778.210938 823.515625 779.023438 C 822.972656 779.832031 822.472656 780.667969 822.011719 781.527344 C 821.554688 782.386719 821.136719 783.265625 820.765625 784.167969 C 820.390625 785.066406 820.0625 785.984375 819.78125 786.914062 C 819.5 787.847656 819.261719 788.792969 819.070312 789.746094 C 818.882812 790.703125 818.738281 791.664062 818.644531 792.636719 C 818.546875 793.605469 818.5 794.578125 818.5 795.550781 C 818.5 796.527344 818.546875 797.5 818.644531 798.46875 C 818.738281 799.4375 818.882812 800.398438 819.070312 801.355469 C 819.261719 802.3125 819.5 803.253906 819.78125 804.1875 C 820.0625 805.121094 820.390625 806.035156 820.765625 806.9375 C 821.136719 807.835938 821.554688 808.71875 822.011719 809.578125 C 822.472656 810.4375 822.972656 811.269531 823.515625 812.082031 C 824.054688 812.890625 824.636719 813.671875 825.253906 814.425781 C 825.871094 815.179688 826.523438 815.898438 827.214844 816.589844 C 827.902344 817.277344 828.625 817.929688 829.378906 818.550781 C 830.128906 819.167969 830.914062 819.746094 831.722656 820.289062 C 832.53125 820.832031 833.367188 821.332031 834.226562 821.789062 C 835.085938 822.25 835.964844 822.664062 836.867188 823.039062 C 837.765625 823.410156 838.683594 823.738281 839.613281 824.023438 C 840.546875 824.304688 841.492188 824.542969 842.445312 824.730469 C 843.402344 824.921875 844.367188 825.0625 845.335938 825.160156 C 846.304688 825.253906 847.277344 825.304688 848.25 825.304688 C 849.226562 825.304688 850.199219 825.253906 851.167969 825.160156 C 852.136719 825.0625 853.101562 824.921875 854.054688 824.730469 C 855.011719 824.542969 855.953125 824.304688 856.886719 824.023438 C 857.820312 823.738281 858.734375 823.410156 859.636719 823.039062 C 860.535156 822.664062 861.417969 822.25 862.277344 821.789062 C 863.136719 821.332031 863.96875 820.832031 864.78125 820.289062 C 865.589844 819.746094 866.371094 819.167969 867.125 818.550781 C 867.878906 817.929688 868.597656 817.277344 869.289062 816.589844 C 869.976562 815.898438 870.632812 815.179688 871.25 814.425781 C 871.867188 813.671875 872.445312 812.890625 872.988281 812.082031 C 873.53125 811.269531 874.03125 810.4375 874.488281 809.578125 C 874.949219 808.71875 875.363281 807.835938 875.738281 806.9375 C 876.109375 806.035156 876.4375 805.121094 876.722656 804.1875 C 877.003906 803.253906 877.242188 802.3125 877.429688 801.355469 C 877.621094 800.398438 877.761719 799.4375 877.859375 798.46875 C 877.953125 797.5 878.003906 796.527344 878.003906 795.550781 Z M 878.003906 795.550781 " fill-opacity="1" fill-rule="nonzero"/></g></svg>