<svg xmlns="http://www.w3.org/2000/svg" xmlns:xlink="http://www.w3.org/1999/xlink" width="2000" zoomAndPan="magnify" viewBox="0 0 1500 1499.999933" height="2000" preserveAspectRatio="xMidYMid meet" version="1.0"><defs><clipPath id="75a56ae8cf"><path d="M 2 2 L 1161.839844 2 L 1161.839844 1078.519531 L 2 1078.519531 Z M 2 2 " clip-rule="nonzero"/></clipPath><clipPath id="57deb6ab1f"><path d="M 253 341 L 923.082031 341 L 923.082031 1003.597656 L 253 1003.597656 Z M 253 341 " clip-rule="nonzero"/></clipPath><clipPath id="ef34a60f72"><rect x="0" width="1162" y="0" height="1079"/></clipPath></defs><g transform="matrix(1, 0, 0, 1, 168, 211)"><g clip-path="url(#ef34a60f72)"><g clip-path="url(#75a56ae8cf)"><path fill="#3a5a40" d="M 1033.710938 539.46875 C 1033.710938 560.695312 1033.710938 582.160156 1033.710938 603.386719 C 1033.710938 751.019531 1033.710938 898.886719 1033.710938 1046.515625 C 1033.710938 1063.6875 1019.164062 1078.238281 1001.992188 1078.238281 C 967.648438 1078.238281 933.304688 1078.238281 898.960938 1078.238281 C 654.738281 1078.238281 410.277344 1078.238281 166.058594 1078.238281 C 148.886719 1078.238281 134.335938 1063.6875 134.335938 1046.515625 C 134.335938 1025.289062 134.335938 1003.824219 134.335938 982.601562 C 134.335938 834.96875 134.335938 687.101562 134.335938 539.46875 C 134.335938 498.449219 197.777344 498.6875 197.777344 539.46875 C 197.777344 560.695312 197.777344 582.160156 197.777344 603.386719 C 197.777344 740.523438 197.777344 877.660156 197.777344 1014.796875 C 221.628906 1014.796875 245.238281 1014.796875 269.089844 1014.796875 C 502.816406 1014.796875 736.542969 1014.796875 970.273438 1014.796875 C 970.273438 1004.066406 970.273438 993.332031 970.273438 982.601562 C 970.273438 834.96875 970.273438 687.101562 970.273438 539.46875 C 970.273438 498.6875 1033.710938 498.6875 1033.710938 539.46875 Z M 1151.53125 505.367188 C 991.976562 361.074219 832.660156 217.023438 673.34375 72.96875 C 650.683594 52.457031 628.265625 32.1875 605.609375 11.675781 C 592.492188 -0.25 573.886719 -0.25 560.769531 11.675781 C 400.738281 155.964844 240.707031 300.019531 80.675781 444.070312 C 58.015625 464.582031 35.359375 484.855469 12.703125 505.367188 C -17.824219 532.792969 27.25 577.628906 57.539062 550.203125 C 217.574219 406.148438 377.367188 262.097656 537.398438 118.042969 C 552.660156 104.449219 567.6875 90.855469 582.953125 77.023438 C 734.875 214.398438 886.796875 351.773438 1038.722656 488.910156 C 1061.378906 509.421875 1083.796875 529.691406 1106.453125 550.203125 C 1136.742188 577.390625 1181.820312 532.792969 1151.53125 505.367188 Z M 907.785156 183.15625 C 907.785156 170.515625 907.785156 158.113281 907.785156 145.472656 C 933.542969 145.472656 959.300781 145.472656 985.058594 145.472656 C 985.058594 202.234375 985.058594 258.996094 985.058594 315.757812 C 985.058594 356.542969 1048.5 356.78125 1048.5 315.757812 C 1048.5 248.503906 1048.5 181.246094 1048.5 113.75 C 1048.5 96.582031 1033.949219 82.03125 1016.777344 82.03125 C 969.792969 82.03125 923.050781 82.03125 876.066406 82.03125 C 858.894531 82.03125 844.34375 96.582031 844.34375 113.75 C 844.34375 136.886719 844.34375 160.019531 844.34375 183.15625 C 844.105469 224.175781 907.785156 224.175781 907.785156 183.15625 Z M 907.785156 183.15625 " fill-opacity="1" fill-rule="nonzero"/></g><g clip-path="url(#57deb6ab1f)"><path fill="#3a5a40" d="M 316.726562 870.570312 C 313.414062 867.203125 310.210938 863.738281 307.121094 860.167969 C 304.03125 856.597656 301.0625 852.933594 298.210938 849.171875 C 295.355469 845.410156 292.628906 841.558594 290.023438 837.621094 C 287.417969 833.683594 284.945312 829.664062 282.601562 825.566406 C 280.253906 821.46875 278.042969 817.300781 275.96875 813.0625 C 273.894531 808.820312 271.957031 804.519531 270.15625 800.152344 C 268.359375 795.789062 266.703125 791.367188 265.191406 786.898438 C 263.679688 782.425781 262.3125 777.90625 261.089844 773.347656 C 259.871094 768.789062 258.796875 764.191406 257.871094 759.5625 C 256.945312 754.933594 256.171875 750.277344 255.546875 745.597656 C 254.921875 740.917969 254.449219 736.222656 254.128906 731.511719 C 253.808594 726.804688 253.640625 722.085938 253.621094 717.367188 C 253.605469 712.644531 253.742188 707.929688 254.027344 703.214844 C 254.316406 698.503906 254.757812 693.804688 255.347656 689.121094 C 255.9375 684.4375 256.679688 679.777344 257.570312 675.140625 C 258.460938 670.503906 259.503906 665.902344 260.691406 661.332031 C 261.878906 656.765625 263.214844 652.238281 264.695312 647.757812 C 266.175781 643.273438 267.800781 638.84375 269.570312 634.464844 C 271.335938 630.085938 273.242188 625.769531 275.289062 621.515625 C 277.332031 617.261719 279.511719 613.074219 281.828125 608.960938 C 284.144531 604.847656 286.589844 600.8125 289.167969 596.855469 C 291.742188 592.898438 294.445312 589.03125 297.269531 585.25 C 300.097656 581.464844 303.042969 577.78125 306.105469 574.1875 C 309.167969 570.597656 312.34375 567.105469 315.632812 563.71875 C 318.921875 560.332031 322.320312 557.054688 325.820312 553.886719 C 329.320312 550.71875 332.917969 547.667969 336.617188 544.734375 C 340.316406 541.796875 344.101562 538.984375 347.980469 536.292969 C 351.863281 533.601562 355.824219 531.039062 359.867188 528.605469 C 363.914062 526.171875 368.03125 523.867188 372.226562 521.699219 C 376.417969 519.53125 380.675781 517.496094 385 515.601562 C 389.328125 513.710938 393.707031 511.957031 398.144531 510.34375 C 402.582031 508.734375 407.066406 507.265625 411.597656 505.945312 C 410.199219 510.714844 408.929688 515.519531 407.785156 520.355469 C 406.644531 525.195312 405.628906 530.058594 404.746094 534.949219 C 403.863281 539.84375 403.109375 544.753906 402.488281 549.6875 C 401.867188 554.617188 401.375 559.5625 401.015625 564.523438 C 400.660156 569.480469 400.433594 574.445312 400.339844 579.414062 C 400.246094 584.382812 400.285156 589.355469 400.453125 594.320312 C 400.625 599.289062 400.929688 604.25 401.363281 609.203125 C 401.800781 614.152344 402.367188 619.089844 403.066406 624.011719 C 403.765625 628.933594 404.59375 633.832031 405.554688 638.710938 C 406.511719 643.589844 407.601562 648.4375 408.820312 653.257812 C 410.039062 658.078125 411.382812 662.859375 412.855469 667.609375 C 414.328125 672.355469 415.929688 677.0625 417.652344 681.722656 C 419.375 686.386719 421.222656 691 423.191406 695.5625 C 425.164062 700.128906 427.253906 704.636719 429.460938 709.089844 C 431.671875 713.542969 434 717.933594 436.445312 722.261719 C 438.886719 726.589844 441.445312 730.851562 444.117188 735.042969 C 446.789062 739.234375 449.570312 743.351562 452.460938 747.398438 C 455.351562 751.441406 458.347656 755.40625 461.449219 759.289062 C 464.550781 763.175781 467.753906 766.972656 471.058594 770.6875 C 474.363281 774.402344 477.765625 778.023438 481.261719 781.558594 C 484.757812 785.089844 488.347656 788.527344 492.03125 791.867188 C 495.710938 795.207031 499.476562 798.449219 503.332031 801.589844 C 507.183594 804.730469 511.117188 807.765625 515.132812 810.695312 C 519.148438 813.625 523.238281 816.449219 527.40625 819.160156 C 531.570312 821.875 535.804688 824.472656 540.109375 826.960938 C 544.414062 829.449219 548.78125 831.816406 553.210938 834.070312 C 557.644531 836.324219 562.128906 838.460938 566.675781 840.476562 C 571.21875 842.492188 575.8125 844.382812 580.460938 846.152344 C 585.105469 847.921875 589.792969 849.566406 594.527344 851.089844 C 599.261719 852.609375 604.03125 854 608.835938 855.265625 C 613.644531 856.53125 618.480469 857.671875 623.347656 858.679688 C 628.21875 859.6875 633.109375 860.5625 638.023438 861.3125 C 634.488281 865.347656 630.808594 869.246094 626.988281 873.011719 C 623.164062 876.773438 619.210938 880.394531 615.121094 883.867188 C 611.035156 887.34375 606.824219 890.664062 602.496094 893.828125 C 598.164062 896.992188 593.722656 899.996094 589.171875 902.835938 C 584.621094 905.675781 579.96875 908.34375 575.222656 910.84375 C 570.476562 913.339844 565.644531 915.664062 560.726562 917.804688 C 555.808594 919.949219 550.820312 921.910156 545.757812 923.6875 C 540.695312 925.464844 535.578125 927.054688 530.398438 928.457031 C 525.21875 929.859375 519.996094 931.070312 514.730469 932.089844 C 509.464844 933.109375 504.167969 933.933594 498.839844 934.5625 C 493.511719 935.191406 488.167969 935.625 482.808594 935.863281 C 477.449219 936.101562 472.089844 936.144531 466.726562 935.988281 C 461.363281 935.832031 456.015625 935.480469 450.679688 934.933594 C 445.339844 934.386719 440.03125 933.644531 434.75 932.707031 C 429.46875 931.769531 424.226562 930.636719 419.027344 929.316406 C 413.828125 927.992188 408.6875 926.484375 403.597656 924.785156 L 301.015625 1002.785156 C 300.441406 1003.136719 299.820312 1003.3125 299.148438 1003.3125 C 298.472656 1003.3125 297.851562 1003.136719 297.28125 1002.78125 C 296.707031 1002.429688 296.269531 1001.949219 295.96875 1001.347656 C 295.667969 1000.746094 295.546875 1000.109375 295.609375 999.441406 Z M 923.007812 584.546875 C 923.015625 592.417969 922.640625 600.273438 921.882812 608.109375 C 921.125 615.945312 919.988281 623.726562 918.472656 631.453125 C 916.957031 639.179688 915.066406 646.8125 912.804688 654.351562 C 910.539062 661.894531 907.917969 669.308594 904.929688 676.589844 C 901.945312 683.875 898.609375 691 894.929688 697.957031 C 891.25 704.917969 887.238281 711.679688 882.894531 718.25 C 878.554688 724.816406 873.902344 731.15625 868.941406 737.269531 C 863.980469 743.382812 858.734375 749.242188 853.203125 754.84375 L 876.5625 897.398438 C 876.628906 898.140625 876.496094 898.84375 876.164062 899.507812 C 875.828125 900.171875 875.347656 900.703125 874.714844 901.09375 C 874.082031 901.484375 873.394531 901.679688 872.648438 901.679688 C 871.90625 901.683594 871.214844 901.488281 870.582031 901.097656 L 757.109375 814.816406 C 753.082031 816.160156 749.023438 817.394531 744.933594 818.527344 C 740.839844 819.660156 736.722656 820.679688 732.578125 821.597656 C 728.433594 822.511719 724.269531 823.316406 720.082031 824.015625 C 715.894531 824.710938 711.691406 825.296875 707.472656 825.773438 C 703.253906 826.25 699.027344 826.613281 694.789062 826.867188 C 690.554688 827.121094 686.3125 827.265625 682.066406 827.296875 C 677.824219 827.328125 673.582031 827.25 669.339844 827.058594 C 665.101562 826.867188 660.867188 826.566406 656.640625 826.152344 C 652.417969 825.742188 648.207031 825.21875 644.011719 824.585938 C 639.8125 823.953125 635.636719 823.207031 631.476562 822.355469 C 627.320312 821.503906 623.1875 820.542969 619.078125 819.472656 C 614.96875 818.402344 610.894531 817.226562 606.847656 815.941406 C 602.800781 814.660156 598.792969 813.269531 594.816406 811.777344 C 590.84375 810.285156 586.914062 808.6875 583.023438 806.988281 C 579.136719 805.285156 575.292969 803.484375 571.496094 801.585938 C 567.703125 799.683594 563.960938 797.683594 560.269531 795.585938 C 556.578125 793.488281 552.945312 791.292969 549.371094 789.007812 C 545.796875 786.71875 542.285156 784.335938 538.835938 781.863281 C 535.382812 779.390625 532 776.832031 528.683594 774.179688 C 525.371094 771.53125 522.125 768.796875 518.953125 765.976562 C 515.78125 763.15625 512.683594 760.253906 509.664062 757.269531 C 506.644531 754.289062 503.703125 751.230469 500.84375 748.09375 C 497.984375 744.957031 495.210938 741.746094 492.519531 738.464844 C 489.828125 735.179688 487.222656 731.828125 484.707031 728.410156 C 482.191406 724.992188 479.769531 721.507812 477.433594 717.964844 C 475.101562 714.417969 472.863281 710.8125 470.71875 707.148438 C 468.574219 703.484375 466.53125 699.765625 464.582031 695.996094 C 462.632812 692.226562 460.785156 688.40625 459.035156 684.539062 C 457.285156 680.671875 455.640625 676.757812 454.097656 672.804688 C 452.554688 668.851562 451.117188 664.859375 449.78125 660.828125 C 448.449219 656.800781 447.222656 652.738281 446.101562 648.644531 C 444.980469 644.550781 443.964844 640.429688 443.0625 636.28125 C 442.15625 632.132812 441.363281 627.964844 440.675781 623.777344 C 439.988281 619.589844 439.414062 615.382812 438.949219 611.164062 C 438.484375 606.945312 438.128906 602.71875 437.882812 598.480469 C 437.640625 594.242188 437.507812 590 437.488281 585.757812 C 437.464844 581.511719 437.554688 577.269531 437.757812 573.03125 C 437.957031 568.789062 438.269531 564.558594 438.695312 560.335938 C 439.117188 556.109375 439.652344 551.902344 440.296875 547.707031 C 440.941406 543.511719 441.691406 539.335938 442.554688 535.179688 C 443.417969 531.023438 444.390625 526.890625 445.472656 522.785156 C 446.550781 518.679688 447.738281 514.609375 449.03125 510.566406 C 450.324219 506.523438 451.722656 502.515625 453.226562 498.546875 C 454.730469 494.578125 456.335938 490.648438 458.046875 486.765625 C 459.757812 482.878906 461.566406 479.042969 463.476562 475.25 C 465.386719 471.460938 467.398438 467.722656 469.503906 464.039062 C 471.613281 460.355469 473.8125 456.726562 476.109375 453.15625 C 478.410156 449.589844 480.796875 446.082031 483.277344 442.636719 C 485.761719 439.195312 488.328125 435.816406 490.988281 432.507812 C 493.648438 429.199219 496.390625 425.960938 499.21875 422.796875 C 502.046875 419.628906 504.957031 416.542969 507.945312 413.527344 C 510.9375 410.515625 514.003906 407.585938 517.148438 404.730469 C 520.292969 401.878906 523.507812 399.113281 526.796875 396.429688 C 530.085938 393.746094 533.441406 391.152344 536.867188 388.644531 C 540.292969 386.136719 543.78125 383.722656 547.335938 381.398438 C 550.886719 379.074219 554.496094 376.84375 558.167969 374.710938 C 561.835938 372.574219 565.558594 370.539062 569.332031 368.601562 C 573.109375 366.660156 576.933594 364.820312 580.804688 363.082031 C 584.675781 361.34375 588.59375 359.707031 592.550781 358.175781 C 596.507812 356.640625 600.503906 355.210938 604.539062 353.890625 C 608.570312 352.566406 612.636719 351.347656 616.730469 350.238281 C 620.828125 349.125 624.953125 348.125 629.101562 347.230469 C 633.25 346.335938 637.421875 345.550781 641.613281 344.875 C 645.800781 344.199219 650.007812 343.636719 654.226562 343.179688 C 658.449219 342.726562 662.675781 342.382812 666.914062 342.148438 C 671.152344 341.914062 675.394531 341.792969 679.640625 341.78125 C 683.886719 341.773438 688.125 341.871094 692.367188 342.085938 C 696.605469 342.296875 700.835938 342.617188 705.058594 343.050781 C 709.28125 343.488281 713.488281 344.03125 717.683594 344.683594 C 721.878906 345.339844 726.050781 346.105469 730.207031 346.976562 C 734.359375 347.851562 738.488281 348.832031 742.589844 349.921875 C 746.691406 351.011719 750.761719 352.210938 754.800781 353.511719 C 758.839844 354.816406 762.84375 356.226562 766.808594 357.738281 C 770.777344 359.253906 774.699219 360.871094 778.578125 362.589844 C 782.460938 364.308594 786.292969 366.128906 790.078125 368.046875 C 793.863281 369.96875 797.597656 371.988281 801.277344 374.101562 C 804.957031 376.21875 808.578125 378.429688 812.140625 380.738281 C 815.703125 383.042969 819.207031 385.441406 822.644531 387.929688 C 826.082031 390.421875 829.449219 393 832.753906 395.667969 C 836.054688 398.332031 839.285156 401.085938 842.445312 403.921875 C 845.601562 406.757812 848.683594 409.671875 851.6875 412.671875 C 854.695312 415.667969 857.621094 418.742188 860.464844 421.894531 C 863.308594 425.046875 866.066406 428.269531 868.742188 431.566406 C 871.417969 434.859375 874.003906 438.222656 876.5 441.65625 C 879 445.085938 881.40625 448.582031 883.722656 452.140625 C 886.035156 455.699219 888.257812 459.3125 890.382812 462.988281 C 892.507812 466.664062 894.535156 470.390625 896.464844 474.171875 C 898.394531 477.953125 900.222656 481.78125 901.953125 485.65625 C 903.683594 489.535156 905.308594 493.453125 906.832031 497.414062 C 908.355469 501.375 909.773438 505.375 911.089844 509.414062 C 912.402344 513.449219 913.609375 517.515625 914.707031 521.617188 C 915.808594 525.714844 916.800781 529.84375 917.683594 533.992188 C 918.570312 538.144531 919.34375 542.316406 920.007812 546.507812 C 920.671875 550.703125 921.230469 554.910156 921.671875 559.128906 C 922.117188 563.351562 922.449219 567.582031 922.671875 571.820312 C 922.894531 576.058594 923.007812 580.300781 923.007812 584.546875 Z M 750.898438 584.546875 C 750.898438 585.519531 750.949219 586.492188 751.042969 587.460938 C 751.140625 588.433594 751.28125 589.394531 751.472656 590.351562 C 751.660156 591.304688 751.898438 592.25 752.179688 593.183594 C 752.464844 594.113281 752.792969 595.03125 753.164062 595.929688 C 753.539062 596.832031 753.953125 597.710938 754.414062 598.570312 C 754.871094 599.429688 755.371094 600.265625 755.914062 601.074219 C 756.457031 601.886719 757.035156 602.667969 757.652344 603.421875 C 758.269531 604.171875 758.925781 604.894531 759.613281 605.582031 C 760.300781 606.273438 761.023438 606.925781 761.777344 607.542969 C 762.53125 608.160156 763.3125 608.742188 764.121094 609.28125 C 764.933594 609.824219 765.765625 610.324219 766.625 610.785156 C 767.484375 611.242188 768.363281 611.660156 769.265625 612.03125 C 770.164062 612.40625 771.082031 612.734375 772.015625 613.015625 C 772.945312 613.296875 773.890625 613.535156 774.847656 613.726562 C 775.800781 613.914062 776.765625 614.058594 777.734375 614.152344 C 778.703125 614.25 779.675781 614.296875 780.652344 614.296875 C 781.625 614.296875 782.597656 614.25 783.566406 614.152344 C 784.535156 614.058594 785.5 613.914062 786.453125 613.726562 C 787.410156 613.535156 788.355469 613.296875 789.285156 613.015625 C 790.21875 612.734375 791.136719 612.40625 792.035156 612.03125 C 792.9375 611.660156 793.816406 611.242188 794.675781 610.785156 C 795.535156 610.324219 796.367188 609.824219 797.179688 609.28125 C 797.988281 608.742188 798.769531 608.160156 799.523438 607.542969 C 800.277344 606.925781 801 606.273438 801.6875 605.582031 C 802.375 604.894531 803.03125 604.171875 803.648438 603.421875 C 804.265625 602.667969 804.84375 601.886719 805.386719 601.074219 C 805.929688 600.265625 806.429688 599.429688 806.886719 598.570312 C 807.347656 597.710938 807.761719 596.832031 808.136719 595.929688 C 808.507812 595.03125 808.835938 594.113281 809.121094 593.183594 C 809.402344 592.25 809.640625 591.304688 809.828125 590.351562 C 810.019531 589.394531 810.164062 588.433594 810.257812 587.460938 C 810.351562 586.492188 810.402344 585.519531 810.402344 584.546875 C 810.402344 583.570312 810.351562 582.601562 810.257812 581.628906 C 810.164062 580.660156 810.019531 579.699219 809.828125 578.742188 C 809.640625 577.785156 809.402344 576.84375 809.121094 575.910156 C 808.835938 574.976562 808.507812 574.0625 808.136719 573.160156 C 807.761719 572.261719 807.347656 571.382812 806.886719 570.523438 C 806.429688 569.664062 805.929688 568.828125 805.386719 568.019531 C 804.84375 567.207031 804.265625 566.425781 803.648438 565.671875 C 803.03125 564.917969 802.375 564.199219 801.6875 563.507812 C 801 562.820312 800.277344 562.167969 799.523438 561.550781 C 798.769531 560.929688 797.988281 560.351562 797.179688 559.808594 C 796.367188 559.269531 795.535156 558.769531 794.675781 558.308594 C 793.816406 557.847656 792.9375 557.433594 792.035156 557.0625 C 791.136719 556.6875 790.21875 556.359375 789.285156 556.078125 C 788.355469 555.792969 787.410156 555.558594 786.453125 555.367188 C 785.5 555.175781 784.535156 555.035156 783.566406 554.9375 C 782.597656 554.84375 781.625 554.796875 780.652344 554.796875 C 779.675781 554.796875 778.703125 554.84375 777.734375 554.9375 C 776.765625 555.035156 775.800781 555.175781 774.847656 555.367188 C 773.890625 555.558594 772.945312 555.792969 772.015625 556.078125 C 771.082031 556.359375 770.164062 556.6875 769.265625 557.0625 C 768.367188 557.433594 767.484375 557.847656 766.625 558.308594 C 765.765625 558.769531 764.933594 559.269531 764.121094 559.808594 C 763.3125 560.351562 762.53125 560.929688 761.777344 561.550781 C 761.023438 562.167969 760.300781 562.820312 759.613281 563.507812 C 758.925781 564.199219 758.269531 564.917969 757.652344 565.671875 C 757.035156 566.425781 756.457031 567.207031 755.914062 568.019531 C 755.371094 568.828125 754.871094 569.664062 754.414062 570.523438 C 753.953125 571.382812 753.539062 572.261719 753.164062 573.160156 C 752.792969 574.0625 752.464844 574.976562 752.179688 575.910156 C 751.898438 576.84375 751.660156 577.785156 751.472656 578.742188 C 751.28125 579.699219 751.140625 580.660156 751.042969 581.628906 C 750.949219 582.601562 750.898438 583.570312 750.898438 584.546875 Z M 609.585938 584.546875 C 609.585938 583.570312 609.539062 582.601562 609.441406 581.628906 C 609.347656 580.660156 609.203125 579.699219 609.011719 578.742188 C 608.824219 577.785156 608.585938 576.84375 608.304688 575.910156 C 608.019531 574.976562 607.695312 574.0625 607.320312 573.160156 C 606.949219 572.261719 606.53125 571.382812 606.074219 570.523438 C 605.613281 569.664062 605.113281 568.828125 604.570312 568.019531 C 604.03125 567.207031 603.449219 566.425781 602.832031 565.671875 C 602.214844 564.917969 601.558594 564.199219 600.871094 563.507812 C 600.183594 562.820312 599.460938 562.167969 598.707031 561.550781 C 597.957031 560.929688 597.171875 560.351562 596.363281 559.808594 C 595.554688 559.269531 594.71875 558.769531 593.859375 558.308594 C 593 557.847656 592.121094 557.433594 591.21875 557.0625 C 590.320312 556.6875 589.402344 556.359375 588.472656 556.078125 C 587.539062 555.792969 586.59375 555.558594 585.640625 555.367188 C 584.683594 555.175781 583.71875 555.035156 582.75 554.9375 C 581.78125 554.84375 580.808594 554.796875 579.835938 554.796875 C 578.859375 554.796875 577.886719 554.84375 576.917969 554.9375 C 575.949219 555.035156 574.988281 555.175781 574.03125 555.367188 C 573.074219 555.558594 572.132812 555.792969 571.199219 556.078125 C 570.265625 556.359375 569.351562 556.6875 568.449219 557.0625 C 567.550781 557.433594 566.667969 557.847656 565.808594 558.308594 C 564.953125 558.769531 564.117188 559.269531 563.304688 559.808594 C 562.496094 560.351562 561.714844 560.929688 560.960938 561.550781 C 560.207031 562.167969 559.488281 562.820312 558.796875 563.507812 C 558.109375 564.199219 557.457031 564.917969 556.835938 565.671875 C 556.21875 566.425781 555.640625 567.207031 555.097656 568.019531 C 554.558594 568.828125 554.054688 569.664062 553.597656 570.523438 C 553.136719 571.382812 552.722656 572.261719 552.347656 573.160156 C 551.976562 574.0625 551.648438 574.976562 551.367188 575.910156 C 551.082031 576.84375 550.847656 577.785156 550.65625 578.742188 C 550.464844 579.699219 550.324219 580.660156 550.226562 581.628906 C 550.132812 582.601562 550.085938 583.570312 550.085938 584.546875 C 550.085938 585.519531 550.132812 586.492188 550.226562 587.460938 C 550.324219 588.433594 550.464844 589.394531 550.65625 590.351562 C 550.847656 591.304688 551.082031 592.25 551.367188 593.183594 C 551.648438 594.113281 551.976562 595.03125 552.347656 595.929688 C 552.722656 596.832031 553.136719 597.710938 553.597656 598.570312 C 554.054688 599.429688 554.558594 600.265625 555.097656 601.074219 C 555.640625 601.886719 556.21875 602.667969 556.835938 603.421875 C 557.457031 604.171875 558.109375 604.894531 558.796875 605.582031 C 559.488281 606.273438 560.207031 606.925781 560.960938 607.542969 C 561.714844 608.160156 562.496094 608.742188 563.304688 609.28125 C 564.117188 609.824219 564.953125 610.324219 565.808594 610.785156 C 566.667969 611.242188 567.550781 611.660156 568.449219 612.03125 C 569.351562 612.40625 570.265625 612.734375 571.199219 613.015625 C 572.132812 613.296875 573.074219 613.535156 574.03125 613.726562 C 574.988281 613.914062 575.949219 614.058594 576.917969 614.152344 C 577.886719 614.25 578.859375 614.296875 579.835938 614.296875 C 580.808594 614.296875 581.78125 614.25 582.75 614.152344 C 583.71875 614.058594 584.683594 613.914062 585.640625 613.726562 C 586.59375 613.535156 587.539062 613.296875 588.472656 613.015625 C 589.402344 612.734375 590.320312 612.40625 591.21875 612.03125 C 592.121094 611.660156 593 611.242188 593.859375 610.785156 C 594.71875 610.324219 595.554688 609.824219 596.363281 609.28125 C 597.171875 608.742188 597.953125 608.160156 598.707031 607.542969 C 599.460938 606.925781 600.183594 606.273438 600.871094 605.582031 C 601.558594 604.894531 602.214844 604.171875 602.832031 603.421875 C 603.449219 602.667969 604.03125 601.886719 604.570312 601.074219 C 605.113281 600.265625 605.613281 599.429688 606.074219 598.570312 C 606.53125 597.710938 606.949219 596.832031 607.320312 595.929688 C 607.695312 595.03125 608.019531 594.113281 608.304688 593.183594 C 608.585938 592.25 608.824219 591.304688 609.011719 590.351562 C 609.203125 589.394531 609.347656 588.433594 609.441406 587.460938 C 609.539062 586.492188 609.585938 585.519531 609.585938 584.546875 Z M 709.992188 584.546875 C 709.992188 583.570312 709.945312 582.601562 709.851562 581.628906 C 709.753906 580.660156 709.613281 579.699219 709.421875 578.742188 C 709.230469 577.785156 708.996094 576.84375 708.710938 575.910156 C 708.429688 574.976562 708.101562 574.0625 707.726562 573.160156 C 707.355469 572.261719 706.941406 571.382812 706.480469 570.523438 C 706.019531 569.664062 705.519531 568.828125 704.980469 568.019531 C 704.4375 567.207031 703.859375 566.425781 703.238281 565.671875 C 702.621094 564.917969 701.96875 564.199219 701.28125 563.507812 C 700.589844 562.820312 699.871094 562.167969 699.117188 561.550781 C 698.363281 560.929688 697.582031 560.351562 696.769531 559.808594 C 695.960938 559.269531 695.125 558.769531 694.265625 558.308594 C 693.40625 557.847656 692.527344 557.433594 691.628906 557.0625 C 690.726562 556.6875 689.8125 556.359375 688.878906 556.078125 C 687.945312 555.792969 687.003906 555.558594 686.046875 555.367188 C 685.089844 555.175781 684.128906 555.035156 683.160156 554.9375 C 682.1875 554.84375 681.21875 554.796875 680.242188 554.796875 C 679.269531 554.796875 678.296875 554.84375 677.328125 554.9375 C 676.355469 555.035156 675.394531 555.175781 674.4375 555.367188 C 673.484375 555.558594 672.539062 555.792969 671.605469 556.078125 C 670.675781 556.359375 669.757812 556.6875 668.859375 557.0625 C 667.957031 557.433594 667.078125 557.847656 666.21875 558.308594 C 665.359375 558.769531 664.523438 559.269531 663.714844 559.808594 C 662.902344 560.351562 662.121094 560.929688 661.367188 561.550781 C 660.617188 562.167969 659.894531 562.820312 659.207031 563.507812 C 658.515625 564.199219 657.863281 564.917969 657.246094 565.671875 C 656.628906 566.425781 656.046875 567.207031 655.507812 568.019531 C 654.964844 568.828125 654.464844 569.664062 654.003906 570.523438 C 653.546875 571.382812 653.128906 572.261719 652.757812 573.160156 C 652.382812 574.0625 652.054688 574.976562 651.773438 575.910156 C 651.492188 576.84375 651.253906 577.785156 651.0625 578.742188 C 650.875 579.699219 650.730469 580.660156 650.636719 581.628906 C 650.539062 582.601562 650.492188 583.570312 650.492188 584.546875 C 650.492188 585.519531 650.539062 586.492188 650.636719 587.460938 C 650.730469 588.433594 650.875 589.394531 651.0625 590.351562 C 651.253906 591.304688 651.492188 592.25 651.773438 593.183594 C 652.054688 594.113281 652.382812 595.03125 652.757812 595.929688 C 653.128906 596.832031 653.546875 597.710938 654.003906 598.570312 C 654.464844 599.429688 654.964844 600.265625 655.507812 601.074219 C 656.046875 601.886719 656.628906 602.667969 657.246094 603.421875 C 657.863281 604.171875 658.515625 604.894531 659.207031 605.582031 C 659.894531 606.273438 660.617188 606.925781 661.367188 607.542969 C 662.121094 608.160156 662.902344 608.742188 663.714844 609.28125 C 664.523438 609.824219 665.359375 610.324219 666.21875 610.785156 C 667.078125 611.242188 667.957031 611.660156 668.859375 612.03125 C 669.757812 612.40625 670.675781 612.734375 671.605469 613.015625 C 672.539062 613.296875 673.484375 613.535156 674.4375 613.726562 C 675.394531 613.914062 676.355469 614.058594 677.328125 614.152344 C 678.296875 614.25 679.269531 614.296875 680.242188 614.296875 C 681.21875 614.296875 682.1875 614.25 683.160156 614.152344 C 684.128906 614.058594 685.089844 613.914062 686.046875 613.726562 C 687.003906 613.535156 687.945312 613.296875 688.878906 613.015625 C 689.8125 612.734375 690.726562 612.40625 691.628906 612.03125 C 692.527344 611.660156 693.40625 611.242188 694.265625 610.785156 C 695.125 610.324219 695.960938 609.824219 696.769531 609.28125 C 697.582031 608.742188 698.363281 608.160156 699.117188 607.542969 C 699.871094 606.925781 700.589844 606.273438 701.28125 605.582031 C 701.96875 604.894531 702.621094 604.171875 703.238281 603.421875 C 703.859375 602.667969 704.4375 601.886719 704.980469 601.074219 C 705.519531 600.265625 706.019531 599.429688 706.480469 598.570312 C 706.941406 597.710938 707.355469 596.832031 707.726562 595.929688 C 708.101562 595.03125 708.429688 594.113281 708.710938 593.183594 C 708.996094 592.25 709.230469 591.304688 709.421875 590.351562 C 709.613281 589.394531 709.753906 588.433594 709.851562 587.460938 C 709.945312 586.492188 709.992188 585.519531 709.992188 584.546875 Z M 709.992188 584.546875 " fill-opacity="1" fill-rule="nonzero"/></g></g></g></svg>