<svg xmlns="http://www.w3.org/2000/svg" xmlns:xlink="http://www.w3.org/1999/xlink" width="2000" zoomAndPan="magnify" viewBox="0 0 1500 1499.999933" height="2000" preserveAspectRatio="xMidYMid meet" version="1.0"><defs><g/><clipPath id="91af30c8b5"><rect x="0" width="1201" y="0" height="309"/></clipPath><clipPath id="e0e18e228b"><path d="M 384 239 L 1116 239 L 1116 918.996094 L 384 918.996094 Z M 384 239 " clip-rule="nonzero"/></clipPath><clipPath id="c8f83c2a30"><path d="M 542 453 L 965.269531 453 L 965.269531 871.558594 L 542 871.558594 Z M 542 453 " clip-rule="nonzero"/></clipPath></defs><g transform="matrix(1, 0, 0, 1, 150, 963)"><g clip-path="url(#91af30c8b5)"><g fill="#3a5a40" fill-opacity="1"><g transform="translate(0.00002043, 241.47357)"><g><path d="M 0.96875 -16.59375 C 5.132812 -16.59375 8.617188 -17.789062 11.421875 -20.1875 C 14.222656 -22.59375 16.425781 -25.519531 18.03125 -28.96875 C 19.632812 -32.414062 21.640625 -37.425781 24.046875 -44 L 70.921875 -172.640625 L 87.765625 -172.640625 L 138.96875 -41.59375 C 140.25 -38.382812 141.609375 -34.414062 143.046875 -29.6875 C 144.492188 -24.957031 145.378906 -20.992188 145.703125 -17.796875 C 150.992188 -18.273438 155.644531 -18.515625 159.65625 -18.515625 L 159.65625 0 L 94.96875 0 L 94.96875 -15.875 C 102.664062 -15.875 106.515625 -19.078125 106.515625 -25.484375 C 106.515625 -28.691406 105.632812 -32.539062 103.875 -37.03125 L 99.0625 -50.25 L 46.890625 -49.296875 L 43.03125 -37.984375 C 42.550781 -36.703125 41.46875 -33.816406 39.78125 -29.328125 C 38.101562 -24.835938 36.625 -21.234375 35.34375 -18.515625 C 40.46875 -18.992188 46.160156 -19.234375 52.421875 -19.234375 L 52.421875 0 L 0.96875 0 Z M 93.046875 -67.328125 L 81.984375 -97.375 C 77.335938 -110.519531 74.296875 -121.5 72.859375 -130.3125 L 72.609375 -130.3125 C 70.046875 -118.769531 67.082031 -108.191406 63.71875 -98.578125 L 52.890625 -67.328125 Z M 93.046875 -67.328125 "/></g></g></g><g fill="#3a5a40" fill-opacity="1"><g transform="translate(160.608573, 241.47357)"><g><path d="M 63 -95.9375 C 58.988281 -101.0625 54.578125 -107.070312 49.765625 -113.96875 L 49.53125 -113.96875 L 50.015625 -39.4375 C 50.015625 -30.457031 49.691406 -23.242188 49.046875 -17.796875 C 54.179688 -18.273438 60.191406 -18.515625 67.078125 -18.515625 L 67.078125 0 L 12.265625 0 L 12.265625 -15.875 C 16.585938 -16.03125 19.867188 -16.546875 22.109375 -17.421875 C 24.359375 -18.304688 26.125 -20.191406 27.40625 -23.078125 C 28.6875 -25.960938 29.328125 -30.53125 29.328125 -36.78125 L 28.859375 -128.875 C 28.859375 -139.613281 29.175781 -146.828125 29.8125 -150.515625 L 11.546875 -149.796875 L 11.546875 -168.3125 L 49.296875 -168.3125 L 122.859375 -75.5 C 129.597656 -66.675781 135.207031 -59.0625 139.6875 -52.65625 L 139.9375 -52.65625 L 139.9375 -128.875 C 139.9375 -139.289062 140.175781 -146.503906 140.65625 -150.515625 L 122.625 -149.796875 L 122.625 -168.3125 L 177.4375 -168.3125 L 177.4375 -152.4375 C 173.113281 -152.28125 169.828125 -151.757812 167.578125 -150.875 C 165.335938 -149.988281 163.578125 -148.101562 162.296875 -145.21875 C 161.015625 -142.332031 160.375 -137.765625 160.375 -131.515625 L 160.375 2.40625 L 139.9375 2.40625 Z M 63 -95.9375 "/></g></g></g><g fill="#3a5a40" fill-opacity="1"><g transform="translate(346.462475, 241.47357)"><g><path d="M 63 -95.9375 C 58.988281 -101.0625 54.578125 -107.070312 49.765625 -113.96875 L 49.53125 -113.96875 L 50.015625 -39.4375 C 50.015625 -30.457031 49.691406 -23.242188 49.046875 -17.796875 C 54.179688 -18.273438 60.191406 -18.515625 67.078125 -18.515625 L 67.078125 0 L 12.265625 0 L 12.265625 -15.875 C 16.585938 -16.03125 19.867188 -16.546875 22.109375 -17.421875 C 24.359375 -18.304688 26.125 -20.191406 27.40625 -23.078125 C 28.6875 -25.960938 29.328125 -30.53125 29.328125 -36.78125 L 28.859375 -128.875 C 28.859375 -139.613281 29.175781 -146.828125 29.8125 -150.515625 L 11.546875 -149.796875 L 11.546875 -168.3125 L 49.296875 -168.3125 L 122.859375 -75.5 C 129.597656 -66.675781 135.207031 -59.0625 139.6875 -52.65625 L 139.9375 -52.65625 L 139.9375 -128.875 C 139.9375 -139.289062 140.175781 -146.503906 140.65625 -150.515625 L 122.625 -149.796875 L 122.625 -168.3125 L 177.4375 -168.3125 L 177.4375 -152.4375 C 173.113281 -152.28125 169.828125 -151.757812 167.578125 -150.875 C 165.335938 -149.988281 163.578125 -148.101562 162.296875 -145.21875 C 161.015625 -142.332031 160.375 -137.765625 160.375 -131.515625 L 160.375 2.40625 L 139.9375 2.40625 Z M 63 -95.9375 "/></g></g></g><g fill="#3a5a40" fill-opacity="1"><g transform="translate(528.469443, 241.47357)"><g><path d="M 0.96875 -16.59375 C 5.132812 -16.59375 8.617188 -17.789062 11.421875 -20.1875 C 14.222656 -22.59375 16.425781 -25.519531 18.03125 -28.96875 C 19.632812 -32.414062 21.640625 -37.425781 24.046875 -44 L 70.921875 -172.640625 L 87.765625 -172.640625 L 138.96875 -41.59375 C 140.25 -38.382812 141.609375 -34.414062 143.046875 -29.6875 C 144.492188 -24.957031 145.378906 -20.992188 145.703125 -17.796875 C 150.992188 -18.273438 155.644531 -18.515625 159.65625 -18.515625 L 159.65625 0 L 94.96875 0 L 94.96875 -15.875 C 102.664062 -15.875 106.515625 -19.078125 106.515625 -25.484375 C 106.515625 -28.691406 105.632812 -32.539062 103.875 -37.03125 L 99.0625 -50.25 L 46.890625 -49.296875 L 43.03125 -37.984375 C 42.550781 -36.703125 41.46875 -33.816406 39.78125 -29.328125 C 38.101562 -24.835938 36.625 -21.234375 35.34375 -18.515625 C 40.46875 -18.992188 46.160156 -19.234375 52.421875 -19.234375 L 52.421875 0 L 0.96875 0 Z M 93.046875 -67.328125 L 81.984375 -97.375 C 77.335938 -110.519531 74.296875 -121.5 72.859375 -130.3125 L 72.609375 -130.3125 C 70.046875 -118.769531 67.082031 -108.191406 63.71875 -98.578125 L 52.890625 -67.328125 Z M 93.046875 -67.328125 "/></g></g></g><g fill="#3a5a40" fill-opacity="1"><g transform="translate(689.078028, 241.47357)"><g><path d="M 12.015625 -15.875 C 16.347656 -16.03125 19.632812 -16.546875 21.875 -17.421875 C 24.125 -18.304688 25.890625 -20.191406 27.171875 -23.078125 C 28.453125 -25.960938 29.09375 -30.53125 29.09375 -36.78125 L 29.09375 -128.875 C 29.09375 -137.851562 29.414062 -145.066406 30.0625 -150.515625 L 12.015625 -149.796875 L 12.015625 -168.3125 L 81.03125 -168.3125 L 81.03125 -152.4375 C 76.695312 -152.28125 73.40625 -151.757812 71.15625 -150.875 C 68.914062 -149.988281 67.15625 -148.101562 65.875 -145.21875 C 64.59375 -142.332031 63.953125 -137.765625 63.953125 -131.515625 L 63.953125 -94.015625 L 130.078125 -94.015625 L 130.078125 -128.875 C 130.078125 -139.613281 130.394531 -146.828125 131.03125 -150.515625 L 113 -149.796875 L 113 -168.3125 L 182.015625 -168.3125 L 182.015625 -152.4375 C 177.679688 -152.28125 174.390625 -151.757812 172.140625 -150.875 C 169.898438 -149.988281 168.140625 -148.101562 166.859375 -145.21875 C 165.578125 -142.332031 164.9375 -137.765625 164.9375 -131.515625 L 164.9375 -39.4375 C 164.9375 -30.457031 164.617188 -23.242188 163.984375 -17.796875 C 169.109375 -18.273438 175.117188 -18.515625 182.015625 -18.515625 L 182.015625 0 L 113 0 L 113 -15.875 C 117.332031 -16.03125 120.617188 -16.546875 122.859375 -17.421875 C 125.109375 -18.304688 126.875 -20.191406 128.15625 -23.078125 C 129.4375 -25.960938 130.078125 -30.53125 130.078125 -36.78125 L 130.078125 -75.734375 L 63.953125 -75.015625 L 63.953125 -39.4375 C 63.953125 -30.457031 63.632812 -23.242188 63 -17.796875 C 68.125 -18.273438 74.132812 -18.515625 81.03125 -18.515625 L 81.03125 0 L 12.015625 0 Z M 12.015625 -15.875 "/></g></g></g><g fill="#3a5a40" fill-opacity="1"><g transform="translate(883.106574, 241.47357)"><g/></g></g><g fill="#3a5a40" fill-opacity="1"><g transform="translate(946.340172, 241.47357)"><g><path d="M 0.96875 -16.59375 C 5.132812 -16.59375 8.617188 -17.789062 11.421875 -20.1875 C 14.222656 -22.59375 16.425781 -25.519531 18.03125 -28.96875 C 19.632812 -32.414062 21.640625 -37.425781 24.046875 -44 L 70.921875 -172.640625 L 87.765625 -172.640625 L 138.96875 -41.59375 C 140.25 -38.382812 141.609375 -34.414062 143.046875 -29.6875 C 144.492188 -24.957031 145.378906 -20.992188 145.703125 -17.796875 C 150.992188 -18.273438 155.644531 -18.515625 159.65625 -18.515625 L 159.65625 0 L 94.96875 0 L 94.96875 -15.875 C 102.664062 -15.875 106.515625 -19.078125 106.515625 -25.484375 C 106.515625 -28.691406 105.632812 -32.539062 103.875 -37.03125 L 99.0625 -50.25 L 46.890625 -49.296875 L 43.03125 -37.984375 C 42.550781 -36.703125 41.46875 -33.816406 39.78125 -29.328125 C 38.101562 -24.835938 36.625 -21.234375 35.34375 -18.515625 C 40.46875 -18.992188 46.160156 -19.234375 52.421875 -19.234375 L 52.421875 0 L 0.96875 0 Z M 93.046875 -67.328125 L 81.984375 -97.375 C 77.335938 -110.519531 74.296875 -121.5 72.859375 -130.3125 L 72.609375 -130.3125 C 70.046875 -118.769531 67.082031 -108.191406 63.71875 -98.578125 L 52.890625 -67.328125 Z M 93.046875 -67.328125 "/></g></g></g><g fill="#3a5a40" fill-opacity="1"><g transform="translate(1106.948757, 241.47357)"><g><path d="M 12.015625 -15.875 C 16.347656 -16.03125 19.632812 -16.546875 21.875 -17.421875 C 24.125 -18.304688 25.890625 -20.191406 27.171875 -23.078125 C 28.453125 -25.960938 29.09375 -30.53125 29.09375 -36.78125 L 29.09375 -128.875 C 29.09375 -137.851562 29.414062 -145.066406 30.0625 -150.515625 L 12.015625 -149.796875 L 12.015625 -168.3125 L 81.03125 -168.3125 L 81.03125 -152.4375 C 76.695312 -152.28125 73.40625 -151.757812 71.15625 -150.875 C 68.914062 -149.988281 67.15625 -148.101562 65.875 -145.21875 C 64.59375 -142.332031 63.953125 -137.765625 63.953125 -131.515625 L 63.953125 -39.4375 C 63.953125 -30.457031 63.632812 -23.242188 63 -17.796875 C 68.125 -18.273438 74.132812 -18.515625 81.03125 -18.515625 L 81.03125 0 L 12.015625 0 Z M 12.015625 -15.875 "/></g></g></g></g></g><g clip-path="url(#e0e18e228b)"><path fill="#3a5a40" d="M 1035.089844 578.632812 C 1035.089844 592.027344 1035.089844 605.574219 1035.089844 618.972656 C 1035.089844 712.144531 1035.089844 805.472656 1035.089844 898.644531 C 1035.089844 909.484375 1025.910156 918.667969 1015.070312 918.667969 C 993.394531 918.667969 971.722656 918.667969 950.046875 918.667969 C 795.910156 918.667969 641.621094 918.667969 487.484375 918.667969 C 476.644531 918.667969 467.464844 909.484375 467.464844 898.644531 C 467.464844 885.25 467.464844 871.703125 467.464844 858.304688 C 467.464844 765.132812 467.464844 671.804688 467.464844 578.632812 C 467.464844 552.742188 507.503906 552.890625 507.503906 578.632812 C 507.503906 592.027344 507.503906 605.574219 507.503906 618.972656 C 507.503906 705.523438 507.503906 792.074219 507.503906 878.625 C 522.554688 878.625 537.457031 878.625 552.511719 878.625 C 700.023438 878.625 847.539062 878.625 995.050781 878.625 C 995.050781 871.851562 995.050781 865.078125 995.050781 858.304688 C 995.050781 765.132812 995.050781 671.804688 995.050781 578.632812 C 995.050781 552.890625 1035.089844 552.890625 1035.089844 578.632812 Z M 1109.449219 557.105469 C 1008.75 466.039062 908.199219 375.121094 807.648438 284.207031 C 793.347656 271.261719 779.199219 258.464844 764.898438 245.519531 C 756.621094 237.996094 744.878906 237.996094 736.601562 245.519531 C 635.601562 336.585938 534.597656 427.503906 433.597656 518.421875 C 419.296875 531.367188 404.996094 544.160156 390.695312 557.105469 C 371.429688 574.417969 399.878906 602.714844 418.996094 585.40625 C 519.996094 494.488281 620.847656 403.570312 721.851562 312.65625 C 731.484375 304.074219 740.96875 295.496094 750.601562 286.765625 C 846.484375 373.464844 942.367188 460.167969 1038.253906 546.71875 C 1052.550781 559.664062 1066.703125 572.460938 1081 585.40625 C 1100.117188 602.566406 1128.566406 574.417969 1109.449219 557.105469 Z M 955.613281 353.746094 C 955.613281 345.769531 955.613281 337.941406 955.613281 329.964844 C 971.871094 329.964844 988.128906 329.964844 1004.382812 329.964844 C 1004.382812 365.789062 1004.382812 401.613281 1004.382812 437.4375 C 1004.382812 463.179688 1044.425781 463.328125 1044.425781 437.4375 C 1044.425781 394.992188 1044.425781 352.542969 1044.425781 309.945312 C 1044.425781 299.105469 1035.242188 289.925781 1024.40625 289.925781 C 994.75 289.925781 965.25 289.925781 935.59375 289.925781 C 924.757812 289.925781 915.574219 299.105469 915.574219 309.945312 C 915.574219 324.546875 915.574219 339.148438 915.574219 353.746094 C 915.425781 379.636719 955.613281 379.636719 955.613281 353.746094 Z M 955.613281 353.746094 " fill-opacity="1" fill-rule="nonzero"/></g><g clip-path="url(#c8f83c2a30)"><path fill="#3a5a40" d="M 582.578125 787.597656 C 580.484375 785.476562 578.464844 783.289062 576.515625 781.035156 C 574.566406 778.78125 572.691406 776.46875 570.890625 774.09375 C 569.089844 771.71875 567.367188 769.289062 565.722656 766.804688 C 564.078125 764.320312 562.519531 761.785156 561.039062 759.199219 C 559.558594 756.613281 558.164062 753.980469 556.851562 751.304688 C 555.542969 748.628906 554.320312 745.914062 553.183594 743.15625 C 552.050781 740.402344 551.003906 737.613281 550.050781 734.789062 C 549.097656 731.96875 548.234375 729.117188 547.460938 726.238281 C 546.691406 723.359375 546.015625 720.460938 545.429688 717.539062 C 544.847656 714.617188 544.359375 711.679688 543.964844 708.726562 C 543.570312 705.773438 543.273438 702.808594 543.070312 699.835938 C 542.867188 696.863281 542.761719 693.886719 542.75 690.90625 C 542.738281 687.929688 542.824219 684.949219 543.007812 681.976562 C 543.1875 679.003906 543.464844 676.039062 543.835938 673.082031 C 544.210938 670.125 544.679688 667.183594 545.242188 664.257812 C 545.804688 661.332031 546.460938 658.425781 547.210938 655.542969 C 547.960938 652.660156 548.804688 649.804688 549.738281 646.972656 C 550.671875 644.144531 551.699219 641.347656 552.8125 638.585938 C 553.929688 635.820312 555.132812 633.097656 556.421875 630.414062 C 557.714844 627.726562 559.089844 625.085938 560.550781 622.488281 C 562.011719 619.894531 563.558594 617.347656 565.183594 614.847656 C 566.808594 612.351562 568.511719 609.910156 570.296875 607.523438 C 572.082031 605.136719 573.9375 602.808594 575.871094 600.542969 C 577.804688 598.273438 579.8125 596.074219 581.886719 593.9375 C 583.964844 591.796875 586.105469 589.730469 588.316406 587.730469 C 590.523438 585.730469 592.796875 583.804688 595.128906 581.953125 C 597.464844 580.101562 599.855469 578.324219 602.304688 576.625 C 604.75 574.929688 607.25 573.308594 609.804688 571.773438 C 612.355469 570.238281 614.957031 568.785156 617.605469 567.414062 C 620.25 566.046875 622.9375 564.761719 625.667969 563.566406 C 628.398438 562.371094 631.160156 561.265625 633.960938 560.25 C 636.761719 559.230469 639.59375 558.304688 642.453125 557.472656 C 641.570312 560.480469 640.769531 563.515625 640.046875 566.566406 C 639.324219 569.621094 638.6875 572.691406 638.128906 575.777344 C 637.570312 578.867188 637.097656 581.964844 636.703125 585.078125 C 636.3125 588.191406 636 591.3125 635.773438 594.441406 C 635.550781 597.570312 635.40625 600.703125 635.347656 603.839844 C 635.289062 606.976562 635.3125 610.113281 635.421875 613.25 C 635.527344 616.386719 635.71875 619.515625 635.996094 622.640625 C 636.269531 625.765625 636.628906 628.882812 637.066406 631.988281 C 637.507812 635.09375 638.03125 638.1875 638.636719 641.265625 C 639.242188 644.34375 639.929688 647.402344 640.699219 650.445312 C 641.46875 653.488281 642.316406 656.507812 643.246094 659.503906 C 644.175781 662.5 645.1875 665.46875 646.273438 668.410156 C 647.363281 671.355469 648.527344 674.265625 649.769531 677.148438 C 651.015625 680.027344 652.332031 682.871094 653.726562 685.683594 C 655.125 688.492188 656.59375 691.265625 658.132812 693.996094 C 659.675781 696.730469 661.292969 699.417969 662.976562 702.0625 C 664.664062 704.710938 666.417969 707.308594 668.242188 709.859375 C 670.066406 712.414062 671.957031 714.914062 673.914062 717.367188 C 675.875 719.820312 677.894531 722.214844 679.980469 724.558594 C 682.066406 726.90625 684.214844 729.191406 686.421875 731.421875 C 688.628906 733.648438 690.894531 735.820312 693.214844 737.925781 C 695.539062 740.035156 697.917969 742.082031 700.347656 744.0625 C 702.78125 746.046875 705.265625 747.960938 707.796875 749.8125 C 710.332031 751.660156 712.914062 753.441406 715.542969 755.152344 C 718.171875 756.867188 720.84375 758.507812 723.5625 760.078125 C 726.277344 761.644531 729.035156 763.140625 731.832031 764.566406 C 734.628906 765.988281 737.460938 767.335938 740.328125 768.605469 C 743.195312 769.878906 746.097656 771.070312 749.027344 772.1875 C 751.960938 773.304688 754.917969 774.34375 757.90625 775.304688 C 760.894531 776.261719 763.902344 777.144531 766.9375 777.941406 C 769.972656 778.742188 773.023438 779.457031 776.097656 780.09375 C 779.167969 780.730469 782.257812 781.285156 785.359375 781.757812 C 783.125 784.300781 780.804688 786.765625 778.394531 789.140625 C 775.980469 791.515625 773.484375 793.800781 770.90625 795.992188 C 768.324219 798.1875 765.667969 800.28125 762.933594 802.277344 C 760.203125 804.277344 757.398438 806.171875 754.527344 807.964844 C 751.652344 809.757812 748.71875 811.441406 745.722656 813.015625 C 742.726562 814.59375 739.675781 816.058594 736.574219 817.414062 C 733.46875 818.765625 730.320312 820.003906 727.125 821.125 C 723.929688 822.246094 720.699219 823.25 717.433594 824.136719 C 714.164062 825.019531 710.867188 825.785156 707.542969 826.425781 C 704.21875 827.070312 700.875 827.589844 697.515625 827.988281 C 694.152344 828.386719 690.777344 828.660156 687.398438 828.808594 C 684.015625 828.960938 680.632812 828.984375 677.246094 828.886719 C 673.863281 828.789062 670.484375 828.566406 667.117188 828.222656 C 663.75 827.875 660.398438 827.40625 657.066406 826.816406 C 653.730469 826.222656 650.425781 825.511719 647.144531 824.675781 C 643.863281 823.84375 640.617188 822.886719 637.402344 821.816406 L 572.660156 871.046875 C 572.300781 871.269531 571.90625 871.378906 571.480469 871.378906 C 571.058594 871.378906 570.664062 871.265625 570.304688 871.042969 C 569.941406 870.820312 569.667969 870.519531 569.476562 870.140625 C 569.285156 869.757812 569.210938 869.359375 569.246094 868.933594 Z M 965.222656 607.082031 C 965.226562 612.050781 964.992188 617.007812 964.511719 621.953125 C 964.035156 626.898438 963.316406 631.808594 962.359375 636.683594 C 961.402344 641.5625 960.210938 646.378906 958.78125 651.136719 C 957.355469 655.898438 955.699219 660.574219 953.8125 665.171875 C 951.929688 669.769531 949.824219 674.265625 947.5 678.660156 C 945.175781 683.050781 942.644531 687.320312 939.90625 691.464844 C 937.164062 695.609375 934.230469 699.613281 931.097656 703.46875 C 927.96875 707.328125 924.65625 711.027344 921.164062 714.5625 L 935.910156 804.53125 C 935.949219 805 935.867188 805.445312 935.65625 805.863281 C 935.445312 806.285156 935.140625 806.617188 934.742188 806.863281 C 934.34375 807.109375 933.90625 807.234375 933.4375 807.234375 C 932.96875 807.234375 932.535156 807.113281 932.132812 806.867188 L 860.519531 752.410156 C 857.976562 753.257812 855.414062 754.039062 852.832031 754.753906 C 850.25 755.46875 847.652344 756.113281 845.035156 756.691406 C 842.417969 757.269531 839.789062 757.777344 837.148438 758.214844 C 834.503906 758.65625 831.851562 759.027344 829.191406 759.328125 C 826.527344 759.628906 823.859375 759.859375 821.1875 760.019531 C 818.511719 760.179688 815.835938 760.269531 813.15625 760.289062 C 810.476562 760.308594 807.800781 760.257812 805.125 760.140625 C 802.445312 760.019531 799.777344 759.828125 797.109375 759.566406 C 794.441406 759.308594 791.785156 758.976562 789.136719 758.578125 C 786.488281 758.175781 783.851562 757.707031 781.226562 757.167969 C 778.601562 756.632812 775.992188 756.023438 773.402344 755.351562 C 770.808594 754.675781 768.234375 753.933594 765.683594 753.121094 C 763.128906 752.3125 760.597656 751.4375 758.089844 750.492188 C 755.582031 749.550781 753.101562 748.542969 750.644531 747.46875 C 748.191406 746.398438 745.765625 745.261719 743.371094 744.058594 C 740.976562 742.859375 738.613281 741.597656 736.285156 740.273438 C 733.957031 738.949219 731.664062 737.566406 729.40625 736.121094 C 727.152344 734.679688 724.933594 733.175781 722.757812 731.613281 C 720.578125 730.054688 718.445312 728.4375 716.351562 726.765625 C 714.257812 725.09375 712.210938 723.367188 710.207031 721.585938 C 708.207031 719.804688 706.253906 717.976562 704.347656 716.09375 C 702.441406 714.210938 700.585938 712.28125 698.78125 710.300781 C 696.976562 708.320312 695.222656 706.292969 693.523438 704.222656 C 691.824219 702.152344 690.183594 700.035156 688.59375 697.878906 C 687.007812 695.71875 685.476562 693.523438 684.003906 691.285156 C 682.53125 689.046875 681.121094 686.769531 679.765625 684.457031 C 678.414062 682.144531 677.121094 679.800781 675.894531 677.421875 C 674.664062 675.039062 673.496094 672.628906 672.390625 670.1875 C 671.289062 667.746094 670.25 665.277344 669.277344 662.785156 C 668.300781 660.289062 667.394531 657.769531 666.550781 655.226562 C 665.710938 652.683594 664.9375 650.117188 664.230469 647.535156 C 663.519531 644.949219 662.882812 642.347656 662.3125 639.730469 C 661.738281 637.113281 661.238281 634.484375 660.804688 631.839844 C 660.371094 629.195312 660.007812 626.542969 659.714844 623.878906 C 659.421875 621.21875 659.199219 618.546875 659.042969 615.875 C 658.890625 613.199219 658.804688 610.523438 658.792969 607.84375 C 658.78125 605.164062 658.835938 602.488281 658.964844 599.8125 C 659.089844 597.136719 659.289062 594.464844 659.554688 591.800781 C 659.820312 589.132812 660.160156 586.476562 660.566406 583.828125 C 660.972656 581.179688 661.449219 578.546875 661.992188 575.921875 C 662.535156 573.300781 663.148438 570.691406 663.832031 568.101562 C 664.511719 565.511719 665.261719 562.9375 666.078125 560.386719 C 666.894531 557.835938 667.777344 555.308594 668.726562 552.800781 C 669.675781 550.296875 670.691406 547.820312 671.769531 545.367188 C 672.847656 542.914062 673.988281 540.492188 675.195312 538.101562 C 676.402344 535.707031 677.671875 533.347656 679 531.023438 C 680.328125 528.699219 681.71875 526.410156 683.167969 524.15625 C 684.621094 521.902344 686.128906 519.691406 687.695312 517.515625 C 689.257812 515.34375 690.882812 513.210938 692.558594 511.125 C 694.238281 509.035156 695.96875 506.992188 697.753906 504.992188 C 699.539062 502.996094 701.375 501.046875 703.261719 499.144531 C 705.148438 497.242188 707.085938 495.394531 709.070312 493.59375 C 711.054688 491.792969 713.082031 490.046875 715.160156 488.351562 C 717.234375 486.660156 719.355469 485.023438 721.515625 483.441406 C 723.679688 481.859375 725.878906 480.332031 728.121094 478.867188 C 730.363281 477.398438 732.640625 475.992188 734.957031 474.644531 C 737.273438 473.296875 739.621094 472.011719 742.003906 470.789062 C 744.386719 469.566406 746.800781 468.402344 749.246094 467.304688 C 751.691406 466.210938 754.160156 465.175781 756.660156 464.207031 C 759.15625 463.242188 761.679688 462.339844 764.222656 461.503906 C 766.769531 460.667969 769.335938 459.898438 771.921875 459.199219 C 774.507812 458.5 777.109375 457.867188 779.726562 457.300781 C 782.347656 456.738281 784.976562 456.242188 787.625 455.816406 C 790.269531 455.390625 792.921875 455.03125 795.585938 454.746094 C 798.25 454.457031 800.917969 454.242188 803.59375 454.09375 C 806.269531 453.945312 808.945312 453.871094 811.625 453.863281 C 814.304688 453.855469 816.980469 453.917969 819.65625 454.054688 C 822.332031 454.1875 825 454.390625 827.667969 454.664062 C 830.332031 454.9375 832.988281 455.28125 835.632812 455.695312 C 838.28125 456.109375 840.914062 456.589844 843.539062 457.140625 C 846.160156 457.691406 848.765625 458.3125 851.355469 459 C 853.941406 459.6875 856.511719 460.445312 859.0625 461.265625 C 861.609375 462.089844 864.136719 462.980469 866.640625 463.933594 C 869.144531 464.890625 871.617188 465.910156 874.066406 466.996094 C 876.519531 468.078125 878.9375 469.226562 881.324219 470.441406 C 883.714844 471.652344 886.070312 472.925781 888.394531 474.261719 C 890.714844 475.597656 893 476.992188 895.25 478.449219 C 897.5 479.90625 899.707031 481.417969 901.878906 482.988281 C 904.046875 484.5625 906.175781 486.1875 908.257812 487.871094 C 910.34375 489.554688 912.382812 491.289062 914.375 493.082031 C 916.367188 494.871094 918.3125 496.710938 920.210938 498.601562 C 922.105469 500.496094 923.953125 502.4375 925.746094 504.425781 C 927.542969 506.414062 929.285156 508.449219 930.972656 510.527344 C 932.660156 512.609375 934.292969 514.730469 935.871094 516.898438 C 937.445312 519.0625 938.964844 521.269531 940.425781 523.515625 C 941.886719 525.757812 943.289062 528.042969 944.632812 530.359375 C 945.972656 532.679688 947.253906 535.03125 948.46875 537.417969 C 949.6875 539.804688 950.84375 542.222656 951.933594 544.667969 C 953.023438 547.113281 954.050781 549.585938 955.011719 552.089844 C 955.972656 554.589844 956.871094 557.113281 957.699219 559.660156 C 958.527344 562.207031 959.289062 564.773438 959.984375 567.363281 C 960.679688 569.949219 961.304688 572.554688 961.863281 575.175781 C 962.421875 577.792969 962.910156 580.429688 963.328125 583.074219 C 963.75 585.71875 964.097656 588.375 964.378906 591.039062 C 964.660156 593.703125 964.871094 596.375 965.011719 599.046875 C 965.152344 601.722656 965.222656 604.402344 965.222656 607.082031 Z M 856.597656 607.082031 C 856.597656 607.695312 856.628906 608.308594 856.6875 608.921875 C 856.75 609.53125 856.839844 610.140625 856.960938 610.742188 C 857.078125 611.347656 857.230469 611.941406 857.40625 612.53125 C 857.585938 613.121094 857.792969 613.699219 858.027344 614.265625 C 858.261719 614.832031 858.527344 615.390625 858.816406 615.929688 C 859.105469 616.472656 859.421875 617 859.761719 617.511719 C 860.105469 618.023438 860.472656 618.515625 860.859375 618.992188 C 861.25 619.46875 861.664062 619.921875 862.097656 620.355469 C 862.53125 620.792969 862.988281 621.203125 863.464844 621.59375 C 863.9375 621.984375 864.433594 622.351562 864.945312 622.691406 C 865.453125 623.035156 865.980469 623.351562 866.523438 623.640625 C 867.066406 623.929688 867.621094 624.191406 868.191406 624.425781 C 868.757812 624.664062 869.335938 624.871094 869.925781 625.046875 C 870.511719 625.226562 871.109375 625.375 871.710938 625.496094 C 872.316406 625.617188 872.921875 625.707031 873.535156 625.765625 C 874.148438 625.828125 874.761719 625.855469 875.375 625.855469 C 875.992188 625.855469 876.605469 625.828125 877.214844 625.765625 C 877.828125 625.707031 878.433594 625.617188 879.039062 625.496094 C 879.640625 625.375 880.238281 625.226562 880.824219 625.046875 C 881.414062 624.871094 881.992188 624.664062 882.5625 624.425781 C 883.128906 624.191406 883.683594 623.929688 884.226562 623.640625 C 884.769531 623.351562 885.296875 623.035156 885.808594 622.691406 C 886.316406 622.351562 886.8125 621.984375 887.285156 621.59375 C 887.761719 621.203125 888.21875 620.792969 888.652344 620.355469 C 889.085938 619.921875 889.5 619.46875 889.890625 618.992188 C 890.28125 618.515625 890.644531 618.023438 890.988281 617.511719 C 891.328125 617 891.644531 616.472656 891.933594 615.929688 C 892.226562 615.390625 892.488281 614.832031 892.722656 614.265625 C 892.957031 613.699219 893.164062 613.121094 893.34375 612.53125 C 893.523438 611.941406 893.671875 611.347656 893.792969 610.742188 C 893.910156 610.140625 894 609.53125 894.0625 608.921875 C 894.121094 608.308594 894.152344 607.695312 894.152344 607.082031 C 894.152344 606.464844 894.121094 605.851562 894.0625 605.238281 C 894 604.628906 893.910156 604.019531 893.792969 603.417969 C 893.671875 602.8125 893.523438 602.21875 893.34375 601.628906 C 893.164062 601.042969 892.957031 600.460938 892.722656 599.894531 C 892.488281 599.328125 892.226562 598.769531 891.933594 598.230469 C 891.644531 597.6875 891.328125 597.160156 890.988281 596.648438 C 890.644531 596.136719 890.28125 595.644531 889.890625 595.167969 C 889.5 594.691406 889.085938 594.238281 888.652344 593.804688 C 888.21875 593.367188 887.761719 592.957031 887.285156 592.566406 C 886.8125 592.175781 886.316406 591.808594 885.808594 591.46875 C 885.296875 591.125 884.769531 590.8125 884.226562 590.519531 C 883.683594 590.230469 883.128906 589.96875 882.5625 589.734375 C 881.992188 589.496094 881.414062 589.289062 880.824219 589.113281 C 880.238281 588.933594 879.640625 588.785156 879.039062 588.664062 C 878.433594 588.542969 877.828125 588.453125 877.214844 588.394531 C 876.605469 588.332031 875.992188 588.304688 875.375 588.304688 C 874.761719 588.304688 874.148438 588.332031 873.535156 588.394531 C 872.921875 588.453125 872.316406 588.542969 871.710938 588.664062 C 871.109375 588.785156 870.511719 588.933594 869.925781 589.113281 C 869.335938 589.289062 868.757812 589.496094 868.191406 589.734375 C 867.621094 589.96875 867.066406 590.230469 866.523438 590.519531 C 865.980469 590.8125 865.453125 591.125 864.945312 591.46875 C 864.433594 591.808594 863.9375 592.175781 863.464844 592.566406 C 862.988281 592.957031 862.53125 593.367188 862.097656 593.804688 C 861.664062 594.238281 861.25 594.691406 860.859375 595.167969 C 860.472656 595.644531 860.105469 596.136719 859.761719 596.648438 C 859.421875 597.160156 859.105469 597.6875 858.816406 598.230469 C 858.527344 598.769531 858.261719 599.328125 858.027344 599.894531 C 857.792969 600.460938 857.585938 601.042969 857.40625 601.628906 C 857.230469 602.21875 857.078125 602.8125 856.960938 603.417969 C 856.839844 604.019531 856.75 604.628906 856.6875 605.238281 C 856.628906 605.851562 856.597656 606.464844 856.597656 607.082031 Z M 767.410156 607.082031 C 767.410156 606.464844 767.378906 605.851562 767.320312 605.238281 C 767.257812 604.628906 767.167969 604.019531 767.050781 603.417969 C 766.929688 602.8125 766.78125 602.21875 766.601562 601.628906 C 766.421875 601.042969 766.214844 600.460938 765.980469 599.894531 C 765.746094 599.328125 765.484375 598.769531 765.191406 598.230469 C 764.902344 597.6875 764.585938 597.160156 764.246094 596.648438 C 763.902344 596.136719 763.539062 595.644531 763.148438 595.167969 C 762.757812 594.691406 762.34375 594.238281 761.910156 593.804688 C 761.476562 593.367188 761.019531 592.957031 760.546875 592.566406 C 760.070312 592.175781 759.578125 591.808594 759.066406 591.46875 C 758.554688 591.125 758.027344 590.8125 757.484375 590.519531 C 756.941406 590.230469 756.386719 589.96875 755.820312 589.734375 C 755.25 589.496094 754.671875 589.289062 754.082031 589.113281 C 753.496094 588.933594 752.898438 588.785156 752.296875 588.664062 C 751.695312 588.542969 751.085938 588.453125 750.472656 588.394531 C 749.863281 588.332031 749.25 588.304688 748.632812 588.304688 C 748.019531 588.304688 747.40625 588.332031 746.792969 588.394531 C 746.179688 588.453125 745.574219 588.542969 744.96875 588.664062 C 744.367188 588.785156 743.769531 588.933594 743.183594 589.113281 C 742.59375 589.289062 742.015625 589.496094 741.449219 589.734375 C 740.878906 589.96875 740.324219 590.230469 739.78125 590.519531 C 739.238281 590.8125 738.714844 591.125 738.203125 591.46875 C 737.691406 591.808594 737.195312 592.175781 736.722656 592.566406 C 736.246094 592.957031 735.792969 593.367188 735.355469 593.804688 C 734.921875 594.238281 734.507812 594.691406 734.117188 595.167969 C 733.730469 595.644531 733.363281 596.136719 733.019531 596.648438 C 732.679688 597.160156 732.363281 597.6875 732.074219 598.230469 C 731.785156 598.769531 731.519531 599.328125 731.285156 599.894531 C 731.050781 600.460938 730.84375 601.042969 730.664062 601.628906 C 730.488281 602.21875 730.335938 602.8125 730.21875 603.417969 C 730.097656 604.019531 730.007812 604.628906 729.945312 605.238281 C 729.886719 605.851562 729.855469 606.464844 729.855469 607.082031 C 729.855469 607.695312 729.886719 608.308594 729.945312 608.921875 C 730.007812 609.53125 730.097656 610.140625 730.21875 610.742188 C 730.335938 611.347656 730.488281 611.941406 730.664062 612.53125 C 730.84375 613.121094 731.050781 613.699219 731.285156 614.265625 C 731.519531 614.832031 731.785156 615.390625 732.074219 615.929688 C 732.363281 616.472656 732.679688 617 733.019531 617.511719 C 733.363281 618.023438 733.730469 618.515625 734.117188 618.992188 C 734.507812 619.46875 734.921875 619.921875 735.355469 620.355469 C 735.792969 620.792969 736.246094 621.203125 736.722656 621.59375 C 737.195312 621.984375 737.691406 622.351562 738.203125 622.691406 C 738.714844 623.035156 739.238281 623.351562 739.78125 623.640625 C 740.324219 623.929688 740.878906 624.191406 741.449219 624.425781 C 742.015625 624.664062 742.59375 624.871094 743.183594 625.046875 C 743.769531 625.226562 744.367188 625.375 744.96875 625.496094 C 745.574219 625.617188 746.179688 625.707031 746.792969 625.765625 C 747.40625 625.828125 748.019531 625.855469 748.632812 625.855469 C 749.25 625.855469 749.863281 625.828125 750.472656 625.765625 C 751.085938 625.707031 751.695312 625.617188 752.296875 625.496094 C 752.898438 625.375 753.496094 625.226562 754.082031 625.046875 C 754.671875 624.871094 755.25 624.664062 755.820312 624.425781 C 756.386719 624.191406 756.941406 623.929688 757.484375 623.640625 C 758.027344 623.351562 758.554688 623.035156 759.066406 622.691406 C 759.578125 622.351562 760.070312 621.984375 760.546875 621.59375 C 761.019531 621.203125 761.476562 620.792969 761.910156 620.355469 C 762.34375 619.921875 762.757812 619.46875 763.148438 618.992188 C 763.539062 618.515625 763.902344 618.023438 764.246094 617.511719 C 764.585938 617 764.902344 616.472656 765.191406 615.929688 C 765.484375 615.390625 765.746094 614.832031 765.980469 614.265625 C 766.214844 613.699219 766.421875 613.121094 766.601562 612.53125 C 766.78125 611.941406 766.929688 611.347656 767.050781 610.742188 C 767.167969 610.140625 767.257812 609.53125 767.320312 608.921875 C 767.378906 608.308594 767.410156 607.695312 767.410156 607.082031 Z M 830.78125 607.082031 C 830.78125 606.464844 830.75 605.851562 830.691406 605.238281 C 830.628906 604.628906 830.539062 604.019531 830.421875 603.417969 C 830.300781 602.8125 830.152344 602.21875 829.972656 601.628906 C 829.792969 601.042969 829.585938 600.460938 829.351562 599.894531 C 829.117188 599.328125 828.855469 598.769531 828.5625 598.230469 C 828.273438 597.6875 827.957031 597.160156 827.617188 596.648438 C 827.273438 596.136719 826.910156 595.644531 826.519531 595.167969 C 826.128906 594.691406 825.714844 594.238281 825.28125 593.804688 C 824.847656 593.367188 824.390625 592.957031 823.917969 592.566406 C 823.441406 592.175781 822.949219 591.808594 822.4375 591.46875 C 821.925781 591.125 821.398438 590.8125 820.855469 590.519531 C 820.3125 590.230469 819.757812 589.96875 819.191406 589.734375 C 818.621094 589.496094 818.042969 589.289062 817.453125 589.113281 C 816.867188 588.933594 816.269531 588.785156 815.667969 588.664062 C 815.0625 588.542969 814.457031 588.453125 813.84375 588.394531 C 813.234375 588.332031 812.621094 588.304688 812.003906 588.304688 C 811.390625 588.304688 810.777344 588.332031 810.164062 588.394531 C 809.550781 588.453125 808.945312 588.542969 808.339844 588.664062 C 807.738281 588.785156 807.140625 588.933594 806.554688 589.113281 C 805.964844 589.289062 805.386719 589.496094 804.820312 589.734375 C 804.25 589.96875 803.695312 590.230469 803.152344 590.519531 C 802.609375 590.8125 802.082031 591.125 801.574219 591.46875 C 801.0625 591.808594 800.566406 592.175781 800.09375 592.566406 C 799.617188 592.957031 799.164062 593.367188 798.726562 593.804688 C 798.292969 594.238281 797.878906 594.691406 797.488281 595.167969 C 797.101562 595.644531 796.734375 596.136719 796.390625 596.648438 C 796.050781 597.160156 795.734375 597.6875 795.445312 598.230469 C 795.15625 598.769531 794.890625 599.328125 794.65625 599.894531 C 794.421875 600.460938 794.214844 601.042969 794.035156 601.628906 C 793.859375 602.21875 793.707031 602.8125 793.589844 603.417969 C 793.46875 604.019531 793.378906 604.628906 793.316406 605.238281 C 793.257812 605.851562 793.226562 606.464844 793.226562 607.082031 C 793.226562 607.695312 793.257812 608.308594 793.316406 608.921875 C 793.378906 609.53125 793.46875 610.140625 793.589844 610.742188 C 793.707031 611.347656 793.859375 611.941406 794.035156 612.53125 C 794.214844 613.121094 794.421875 613.699219 794.65625 614.265625 C 794.890625 614.832031 795.15625 615.390625 795.445312 615.929688 C 795.734375 616.472656 796.050781 617 796.390625 617.511719 C 796.734375 618.023438 797.101562 618.515625 797.488281 618.992188 C 797.878906 619.46875 798.292969 619.921875 798.726562 620.355469 C 799.164062 620.792969 799.617188 621.203125 800.09375 621.59375 C 800.566406 621.984375 801.0625 622.351562 801.574219 622.691406 C 802.082031 623.035156 802.609375 623.351562 803.152344 623.640625 C 803.695312 623.929688 804.25 624.191406 804.820312 624.425781 C 805.386719 624.664062 805.964844 624.871094 806.554688 625.046875 C 807.140625 625.226562 807.738281 625.375 808.339844 625.496094 C 808.945312 625.617188 809.550781 625.707031 810.164062 625.765625 C 810.777344 625.828125 811.390625 625.855469 812.003906 625.855469 C 812.621094 625.855469 813.234375 625.828125 813.84375 625.765625 C 814.457031 625.707031 815.0625 625.617188 815.667969 625.496094 C 816.269531 625.375 816.867188 625.226562 817.453125 625.046875 C 818.042969 624.871094 818.621094 624.664062 819.191406 624.425781 C 819.757812 624.191406 820.3125 623.929688 820.855469 623.640625 C 821.398438 623.351562 821.925781 623.035156 822.4375 622.691406 C 822.949219 622.351562 823.441406 621.984375 823.917969 621.59375 C 824.390625 621.203125 824.847656 620.792969 825.28125 620.355469 C 825.714844 619.921875 826.128906 619.46875 826.519531 618.992188 C 826.910156 618.515625 827.273438 618.023438 827.617188 617.511719 C 827.957031 617 828.273438 616.472656 828.5625 615.929688 C 828.855469 615.390625 829.117188 614.832031 829.351562 614.265625 C 829.585938 613.699219 829.792969 613.121094 829.972656 612.53125 C 830.152344 611.941406 830.300781 611.347656 830.421875 610.742188 C 830.539062 610.140625 830.628906 609.53125 830.691406 608.921875 C 830.75 608.308594 830.78125 607.695312 830.78125 607.082031 Z M 830.78125 607.082031 " fill-opacity="1" fill-rule="nonzero"/></g></svg>