<svg xmlns="http://www.w3.org/2000/svg" xmlns:xlink="http://www.w3.org/1999/xlink" width="2000" zoomAndPan="magnify" viewBox="0 0 1500 1499.999933" height="2000" preserveAspectRatio="xMidYMid meet" version="1.0"><defs><g/><clipPath id="438c809c23"><rect x="0" width="1201" y="0" height="308"/></clipPath></defs><g transform="matrix(1, 0, 0, 1, 150, 531)"><g clip-path="url(#438c809c23)"><g fill="#3a5a40" fill-opacity="1"><g transform="translate(0.00002043, 241.125853)"><g><path d="M 0.96875 -16.59375 C 5.132812 -16.59375 8.617188 -17.789062 11.421875 -20.1875 C 14.222656 -22.59375 16.425781 -25.519531 18.03125 -28.96875 C 19.632812 -32.414062 21.640625 -37.425781 24.046875 -44 L 70.921875 -172.640625 L 87.765625 -172.640625 L 138.96875 -41.59375 C 140.25 -38.382812 141.609375 -34.414062 143.046875 -29.6875 C 144.492188 -24.957031 145.378906 -20.992188 145.703125 -17.796875 C 150.992188 -18.273438 155.644531 -18.515625 159.65625 -18.515625 L 159.65625 0 L 94.96875 0 L 94.96875 -15.875 C 102.664062 -15.875 106.515625 -19.078125 106.515625 -25.484375 C 106.515625 -28.691406 105.632812 -32.539062 103.875 -37.03125 L 99.0625 -50.25 L 46.890625 -49.296875 L 43.03125 -37.984375 C 42.550781 -36.703125 41.46875 -33.816406 39.78125 -29.328125 C 38.101562 -24.835938 36.625 -21.234375 35.34375 -18.515625 C 40.46875 -18.992188 46.160156 -19.234375 52.421875 -19.234375 L 52.421875 0 L 0.96875 0 Z M 93.046875 -67.328125 L 81.984375 -97.375 C 77.335938 -110.519531 74.296875 -121.5 72.859375 -130.3125 L 72.609375 -130.3125 C 70.046875 -118.769531 67.082031 -108.191406 63.71875 -98.578125 L 52.890625 -67.328125 Z M 93.046875 -67.328125 "/></g></g></g><g fill="#3a5a40" fill-opacity="1"><g transform="translate(160.608573, 241.125853)"><g><path d="M 63 -95.9375 C 58.988281 -101.0625 54.578125 -107.070312 49.765625 -113.96875 L 49.53125 -113.96875 L 50.015625 -39.4375 C 50.015625 -30.457031 49.691406 -23.242188 49.046875 -17.796875 C 54.179688 -18.273438 60.191406 -18.515625 67.078125 -18.515625 L 67.078125 0 L 12.265625 0 L 12.265625 -15.875 C 16.585938 -16.03125 19.867188 -16.546875 22.109375 -17.421875 C 24.359375 -18.304688 26.125 -20.191406 27.40625 -23.078125 C 28.6875 -25.960938 29.328125 -30.53125 29.328125 -36.78125 L 28.859375 -128.875 C 28.859375 -139.613281 29.175781 -146.828125 29.8125 -150.515625 L 11.546875 -149.796875 L 11.546875 -168.3125 L 49.296875 -168.3125 L 122.859375 -75.5 C 129.597656 -66.675781 135.207031 -59.0625 139.6875 -52.65625 L 139.9375 -52.65625 L 139.9375 -128.875 C 139.9375 -139.289062 140.175781 -146.503906 140.65625 -150.515625 L 122.625 -149.796875 L 122.625 -168.3125 L 177.4375 -168.3125 L 177.4375 -152.4375 C 173.113281 -152.28125 169.828125 -151.757812 167.578125 -150.875 C 165.335938 -149.988281 163.578125 -148.101562 162.296875 -145.21875 C 161.015625 -142.332031 160.375 -137.765625 160.375 -131.515625 L 160.375 2.40625 L 139.9375 2.40625 Z M 63 -95.9375 "/></g></g></g><g fill="#3a5a40" fill-opacity="1"><g transform="translate(346.462475, 241.125853)"><g><path d="M 63 -95.9375 C 58.988281 -101.0625 54.578125 -107.070312 49.765625 -113.96875 L 49.53125 -113.96875 L 50.015625 -39.4375 C 50.015625 -30.457031 49.691406 -23.242188 49.046875 -17.796875 C 54.179688 -18.273438 60.191406 -18.515625 67.078125 -18.515625 L 67.078125 0 L 12.265625 0 L 12.265625 -15.875 C 16.585938 -16.03125 19.867188 -16.546875 22.109375 -17.421875 C 24.359375 -18.304688 26.125 -20.191406 27.40625 -23.078125 C 28.6875 -25.960938 29.328125 -30.53125 29.328125 -36.78125 L 28.859375 -128.875 C 28.859375 -139.613281 29.175781 -146.828125 29.8125 -150.515625 L 11.546875 -149.796875 L 11.546875 -168.3125 L 49.296875 -168.3125 L 122.859375 -75.5 C 129.597656 -66.675781 135.207031 -59.0625 139.6875 -52.65625 L 139.9375 -52.65625 L 139.9375 -128.875 C 139.9375 -139.289062 140.175781 -146.503906 140.65625 -150.515625 L 122.625 -149.796875 L 122.625 -168.3125 L 177.4375 -168.3125 L 177.4375 -152.4375 C 173.113281 -152.28125 169.828125 -151.757812 167.578125 -150.875 C 165.335938 -149.988281 163.578125 -148.101562 162.296875 -145.21875 C 161.015625 -142.332031 160.375 -137.765625 160.375 -131.515625 L 160.375 2.40625 L 139.9375 2.40625 Z M 63 -95.9375 "/></g></g></g><g fill="#3a5a40" fill-opacity="1"><g transform="translate(528.469443, 241.125853)"><g><path d="M 0.96875 -16.59375 C 5.132812 -16.59375 8.617188 -17.789062 11.421875 -20.1875 C 14.222656 -22.59375 16.425781 -25.519531 18.03125 -28.96875 C 19.632812 -32.414062 21.640625 -37.425781 24.046875 -44 L 70.921875 -172.640625 L 87.765625 -172.640625 L 138.96875 -41.59375 C 140.25 -38.382812 141.609375 -34.414062 143.046875 -29.6875 C 144.492188 -24.957031 145.378906 -20.992188 145.703125 -17.796875 C 150.992188 -18.273438 155.644531 -18.515625 159.65625 -18.515625 L 159.65625 0 L 94.96875 0 L 94.96875 -15.875 C 102.664062 -15.875 106.515625 -19.078125 106.515625 -25.484375 C 106.515625 -28.691406 105.632812 -32.539062 103.875 -37.03125 L 99.0625 -50.25 L 46.890625 -49.296875 L 43.03125 -37.984375 C 42.550781 -36.703125 41.46875 -33.816406 39.78125 -29.328125 C 38.101562 -24.835938 36.625 -21.234375 35.34375 -18.515625 C 40.46875 -18.992188 46.160156 -19.234375 52.421875 -19.234375 L 52.421875 0 L 0.96875 0 Z M 93.046875 -67.328125 L 81.984375 -97.375 C 77.335938 -110.519531 74.296875 -121.5 72.859375 -130.3125 L 72.609375 -130.3125 C 70.046875 -118.769531 67.082031 -108.191406 63.71875 -98.578125 L 52.890625 -67.328125 Z M 93.046875 -67.328125 "/></g></g></g><g fill="#3a5a40" fill-opacity="1"><g transform="translate(689.078028, 241.125853)"><g><path d="M 12.015625 -15.875 C 16.347656 -16.03125 19.632812 -16.546875 21.875 -17.421875 C 24.125 -18.304688 25.890625 -20.191406 27.171875 -23.078125 C 28.453125 -25.960938 29.09375 -30.53125 29.09375 -36.78125 L 29.09375 -128.875 C 29.09375 -137.851562 29.414062 -145.066406 30.0625 -150.515625 L 12.015625 -149.796875 L 12.015625 -168.3125 L 81.03125 -168.3125 L 81.03125 -152.4375 C 76.695312 -152.28125 73.40625 -151.757812 71.15625 -150.875 C 68.914062 -149.988281 67.15625 -148.101562 65.875 -145.21875 C 64.59375 -142.332031 63.953125 -137.765625 63.953125 -131.515625 L 63.953125 -94.015625 L 130.078125 -94.015625 L 130.078125 -128.875 C 130.078125 -139.613281 130.394531 -146.828125 131.03125 -150.515625 L 113 -149.796875 L 113 -168.3125 L 182.015625 -168.3125 L 182.015625 -152.4375 C 177.679688 -152.28125 174.390625 -151.757812 172.140625 -150.875 C 169.898438 -149.988281 168.140625 -148.101562 166.859375 -145.21875 C 165.578125 -142.332031 164.9375 -137.765625 164.9375 -131.515625 L 164.9375 -39.4375 C 164.9375 -30.457031 164.617188 -23.242188 163.984375 -17.796875 C 169.109375 -18.273438 175.117188 -18.515625 182.015625 -18.515625 L 182.015625 0 L 113 0 L 113 -15.875 C 117.332031 -16.03125 120.617188 -16.546875 122.859375 -17.421875 C 125.109375 -18.304688 126.875 -20.191406 128.15625 -23.078125 C 129.4375 -25.960938 130.078125 -30.53125 130.078125 -36.78125 L 130.078125 -75.734375 L 63.953125 -75.015625 L 63.953125 -39.4375 C 63.953125 -30.457031 63.632812 -23.242188 63 -17.796875 C 68.125 -18.273438 74.132812 -18.515625 81.03125 -18.515625 L 81.03125 0 L 12.015625 0 Z M 12.015625 -15.875 "/></g></g></g><g fill="#3a5a40" fill-opacity="1"><g transform="translate(883.106574, 241.125853)"><g/></g></g><g fill="#3a5a40" fill-opacity="1"><g transform="translate(946.340172, 241.125853)"><g><path d="M 0.96875 -16.59375 C 5.132812 -16.59375 8.617188 -17.789062 11.421875 -20.1875 C 14.222656 -22.59375 16.425781 -25.519531 18.03125 -28.96875 C 19.632812 -32.414062 21.640625 -37.425781 24.046875 -44 L 70.921875 -172.640625 L 87.765625 -172.640625 L 138.96875 -41.59375 C 140.25 -38.382812 141.609375 -34.414062 143.046875 -29.6875 C 144.492188 -24.957031 145.378906 -20.992188 145.703125 -17.796875 C 150.992188 -18.273438 155.644531 -18.515625 159.65625 -18.515625 L 159.65625 0 L 94.96875 0 L 94.96875 -15.875 C 102.664062 -15.875 106.515625 -19.078125 106.515625 -25.484375 C 106.515625 -28.691406 105.632812 -32.539062 103.875 -37.03125 L 99.0625 -50.25 L 46.890625 -49.296875 L 43.03125 -37.984375 C 42.550781 -36.703125 41.46875 -33.816406 39.78125 -29.328125 C 38.101562 -24.835938 36.625 -21.234375 35.34375 -18.515625 C 40.46875 -18.992188 46.160156 -19.234375 52.421875 -19.234375 L 52.421875 0 L 0.96875 0 Z M 93.046875 -67.328125 L 81.984375 -97.375 C 77.335938 -110.519531 74.296875 -121.5 72.859375 -130.3125 L 72.609375 -130.3125 C 70.046875 -118.769531 67.082031 -108.191406 63.71875 -98.578125 L 52.890625 -67.328125 Z M 93.046875 -67.328125 "/></g></g></g><g fill="#3a5a40" fill-opacity="1"><g transform="translate(1106.948757, 241.125853)"><g><path d="M 12.015625 -15.875 C 16.347656 -16.03125 19.632812 -16.546875 21.875 -17.421875 C 24.125 -18.304688 25.890625 -20.191406 27.171875 -23.078125 C 28.453125 -25.960938 29.09375 -30.53125 29.09375 -36.78125 L 29.09375 -128.875 C 29.09375 -137.851562 29.414062 -145.066406 30.0625 -150.515625 L 12.015625 -149.796875 L 12.015625 -168.3125 L 81.03125 -168.3125 L 81.03125 -152.4375 C 76.695312 -152.28125 73.40625 -151.757812 71.15625 -150.875 C 68.914062 -149.988281 67.15625 -148.101562 65.875 -145.21875 C 64.59375 -142.332031 63.953125 -137.765625 63.953125 -131.515625 L 63.953125 -39.4375 C 63.953125 -30.457031 63.632812 -23.242188 63 -17.796875 C 68.125 -18.273438 74.132812 -18.515625 81.03125 -18.515625 L 81.03125 0 L 12.015625 0 Z M 12.015625 -15.875 "/></g></g></g></g></g></svg>